<svg id="x-curv" xmlns="http://www.w3.org/2000/svg" width="87.844" height="33.15" viewBox="0 0 87.844 33.15">
    <metadata><?xpacket begin="﻿" id="W5M0MpCehiHzreSzNTczkc9d"?>
        <x:xmpmeta xmlns:x="adobe:ns:meta/" x:xmptk="Adobe XMP Core 5.6-c142 79.160924, 2017/07/13-01:06:39        ">
            <rdf:RDF xmlns:rdf="http://www.w3.org/1999/02/22-rdf-syntax-ns#">
                <rdf:Description rdf:about=""/>
            </rdf:RDF>
        </x:xmpmeta>


        <?xpacket end="w"?>
    </metadata>
    <defs>
        <style>
            .cls-1 {
            fill: #fefefe;
            fill-rule: evenodd;
            }
        </style>
    </defs>
    <path id="Fill_1" data-name="Fill 1" class="cls-1"
          d="M357.455,2443.23c1.544,0,5.208.37,5.178,2.81v1.7h-4.5c0.462-2.06-.6-1.9-1.333-1.9-2.359,0-2.931,4.96-2.931,5.37a1.567,1.567,0,0,0,1.305,1.79c1.423,0,1.752-1.47,2.017-2.23h4.779c-0.451,3.47-5.252,4.83-7.45,4.83-3.256,0-5.208-1.34-5.208-4.39,0-5.17,3.582-7.98,8.14-7.98"
          transform="translate(-316 -2430.69)"/>
    <path id="Fill_3" data-name="Fill 3" class="cls-1"
          d="M376.942,2443.63l-2.406,11.83h-4.06l0.395-1.81-0.055-.04a5.413,5.413,0,0,1-4.333,2.13,2.981,2.981,0,0,1-2.315-.84,2.828,2.828,0,0,1-.77-2,18.373,18.373,0,0,1,.445-2.94l1.316-6.33h4.313l-1.187,5.78q-0.257,1.26-.292,1.47a2.864,2.864,0,0,0-.037.51v0.03a0.794,0.794,0,0,0,.825.96,2.1,2.1,0,0,0,1.692-.93,6.657,6.657,0,0,0,1.076-2.69l1.047-5.13h4.346Z"
          transform="translate(-316 -2430.69)"/>
    <path id="Fill_5" data-name="Fill 5" class="cls-1"
          d="M388.049,2443.72l-1.592,3.5a3.825,3.825,0,0,0-.888-0.12,2.48,2.48,0,0,0-2.014.94,6.9,6.9,0,0,0-1.2,2.99l-0.891,4.43h-4.323l2.4-11.83h4.036l-0.5,2.33,0.046,0.05a7.784,7.784,0,0,1,1.765-2.11,2.909,2.909,0,0,1,1.675-.53,3.6,3.6,0,0,1,1.486.35"
          transform="translate(-316 -2430.69)"/>
    <path id="Fill_7" data-name="Fill 7" class="cls-1" d="M400.979,2443.63l-7.025,11.83h-3.827l-2.163-11.83h4.082l0.649,7.49h0.041l3.73-7.49h4.513Z"
          transform="translate(-316 -2430.69)"/>
    <path id="Fill_9" data-name="Fill 9" class="cls-1"
          d="M402.374,2444.88h0.244a0.453,0.453,0,0,0,.243-0.05,0.178,0.178,0,0,0,.063-0.14,0.163,0.163,0,0,0-.031-0.1,0.2,0.2,0,0,0-.087-0.07,0.825,0.825,0,0,0-.2-0.02h-0.229v0.38Zm-0.2.71v-1.26H402.6a0.839,0.839,0,0,1,.318.04,0.266,0.266,0,0,1,.158.12,0.324,0.324,0,0,1,.061.18,0.348,0.348,0,0,1-.1.24,0.4,0.4,0,0,1-.264.12,0.311,0.311,0,0,1,.11.06,1.52,1.52,0,0,1,.184.25l0.153,0.25H402.98l-0.115-.2a0.926,0.926,0,0,0-.212-0.29,0.255,0.255,0,0,0-.162-0.04h-0.117v0.53h-0.2Zm0.514-1.62a1.042,1.042,0,0,0-.482.12,0.98,0.98,0,0,0-.363.36,1,1,0,0,0-.133.49,0.934,0.934,0,0,0,.133.48,0.893,0.893,0,0,0,.358.37,1.04,1.04,0,0,0,.97,0,0.912,0.912,0,0,0,.361-0.37,0.939,0.939,0,0,0,.128-0.48,1,1,0,0,0-.131-0.49,0.95,0.95,0,0,0-.365-0.36,1.028,1.028,0,0,0-.476-0.12h0Zm0.171-.2a0.646,0.646,0,0,1,.4.15,1.118,1.118,0,0,1,.438.43,1.233,1.233,0,0,1,.155.59,1.165,1.165,0,0,1-.153.58,1.142,1.142,0,0,1-.432.44,1.208,1.208,0,0,1-1.166,0,1.127,1.127,0,0,1-.429-0.44,1.15,1.15,0,0,1-.158-0.58,1.237,1.237,0,0,1,.158-0.59,1.129,1.129,0,0,1,.437-0.43,1.967,1.967,0,0,1,.749-0.15h0Z"
          transform="translate(-316 -2430.69)"/>
    <path id="Fill_11" data-name="Fill 11" class="cls-1"
          d="M338.973,2442.77c-7.127,3.87-13.541,5.66-14.317,4.01s4.365-6.14,11.492-10.01,13.538-5.67,14.318-4.01-4.364,6.13-11.493,10.01M352.9,2432c-0.993-2.21-5.02-1.3-10.039.4l-1.1-1.06a57.8,57.8,0,0,0-8.361,3.41c-11.432,5.7-19.086,13.8-17.093,18.08s12.879,3.15,24.31-2.55a49.108,49.108,0,0,0,5.157-3.28l-2.929-2.98c7.552-4.56,11.184-9.51,10.05-12.02"
          transform="translate(-316 -2430.69)"/>
    <path id="Fill_14" data-name="Fill 14" class="cls-1"
          d="M353.116,2460.79l-0.477.46a1.5,1.5,0,0,0-1.1-.52,1.2,1.2,0,0,0-1.221,1.22,1.292,1.292,0,0,0,.158.64,1.181,1.181,0,0,0,.442.44,1.337,1.337,0,0,0,.632.15,1.228,1.228,0,0,0,.545-0.11,1.969,1.969,0,0,0,.541-0.4l0.461,0.48a2.489,2.489,0,0,1-.752.54,2.036,2.036,0,0,1-.806.15,1.883,1.883,0,0,1-1.371-.53,1.894,1.894,0,0,1,.406-2.99,2.058,2.058,0,0,1,.976-0.25,2.118,2.118,0,0,1,.853.19,1.975,1.975,0,0,1,.71.53"
          transform="translate(-316 -2430.69)"/>
    <path id="Fill_17" data-name="Fill 17" class="cls-1"
          d="M355.9,2460.74a1.1,1.1,0,0,0-.838.35,1.193,1.193,0,0,0-.337.88,1.154,1.154,0,0,0,.426.94,1.173,1.173,0,0,0,.763.27,1.132,1.132,0,0,0,.827-0.35,1.206,1.206,0,0,0,.343-0.87,1.173,1.173,0,0,0-.346-0.86,1.115,1.115,0,0,0-.838-0.36m0.008-.67a1.769,1.769,0,0,1,1.309.55,1.856,1.856,0,0,1,.549,1.35,1.833,1.833,0,0,1-.543,1.33,1.876,1.876,0,0,1-2.654-.02,1.9,1.9,0,0,1,.4-2.96,1.924,1.924,0,0,1,.938-0.25"
          transform="translate(-316 -2430.69)"/>
    <path id="Fill_19" data-name="Fill 19" class="cls-1"
          d="M359.255,2460.16h0.666l0.831,2.5,0.841-2.5h0.664l0.6,3.59H362.2l-0.383-2.27-0.762,2.27h-0.6l-0.753-2.27-0.395,2.27h-0.664Z"
          transform="translate(-316 -2430.69)"/>
    <path id="Fill_21" data-name="Fill 21" class="cls-1"
          d="M364.582,2461.57H364.8a1.328,1.328,0,0,0,.358-0.04,0.391,0.391,0,0,0,.156-0.12,0.368,0.368,0,0,0,.058-0.21,0.316,0.316,0,0,0-.16-0.3,0.892,0.892,0,0,0-.435-0.07h-0.193v0.74Zm-0.683-1.41h0.725a2.438,2.438,0,0,1,.848.11,0.847,0.847,0,0,1,.409.35,1.089,1.089,0,0,1,.151.58,0.991,0.991,0,0,1-.2.63,1.069,1.069,0,0,1-.53.35,3.692,3.692,0,0,1-.721.05v1.52H363.9v-3.59Z"
          transform="translate(-316 -2430.69)"/>
    <path id="Fill_23" data-name="Fill 23" class="cls-1"
          d="M368.886,2460.74a1.1,1.1,0,0,0-.838.35,1.2,1.2,0,0,0-.34.88,1.153,1.153,0,0,0,.428.94,1.181,1.181,0,0,0,.764.27,1.132,1.132,0,0,0,.827-0.35,1.205,1.205,0,0,0,.342-0.87,1.172,1.172,0,0,0-.345-0.86,1.115,1.115,0,0,0-.838-0.36m0.009-.67a1.77,1.77,0,0,1,1.308.55,1.924,1.924,0,0,1,.007,2.68,1.877,1.877,0,0,1-2.655-.02,1.9,1.9,0,0,1,.4-2.96,1.945,1.945,0,0,1,.942-0.25"
          transform="translate(-316 -2430.69)"/>
    <path id="Fill_25" data-name="Fill 25" class="cls-1"
          d="M373.778,2460.65l-0.508.45a0.7,0.7,0,0,0-.541-0.37,0.324,0.324,0,0,0-.221.07,0.2,0.2,0,0,0-.084.16,0.273,0.273,0,0,0,.061.17,4.308,4.308,0,0,0,.5.46c0.261,0.22.419,0.36,0.475,0.41a1.564,1.564,0,0,1,.3.4,1.068,1.068,0,0,1,.084.42,0.949,0.949,0,0,1-.3.73,1.081,1.081,0,0,1-.8.29,1.141,1.141,0,0,1-.666-0.19,1.424,1.424,0,0,1-.487-0.59l0.573-.34a0.736,0.736,0,0,0,.6.47,0.429,0.429,0,0,0,.3-0.1,0.317,0.317,0,0,0,.118-0.24,0.391,0.391,0,0,0-.089-0.24,2.3,2.3,0,0,0-.4-0.37,4.5,4.5,0,0,1-.757-0.74,0.963,0.963,0,0,1-.174-0.52,0.844,0.844,0,0,1,.288-0.64,0.971,0.971,0,0,1,.7-0.27,1.033,1.033,0,0,1,.513.13,1.814,1.814,0,0,1,.526.45"
          transform="translate(-316 -2430.69)"/>
    <path id="Fill_28" data-name="Fill 28" class="cls-1" d="M374.943,2463.75h0.677v-3.59h-0.677v3.59Z" transform="translate(-316 -2430.69)"/>
    <path id="Fill_30" data-name="Fill 30" class="cls-1" d="M376.536,2460.16h1.984v0.67h-0.656v2.92h-0.692v-2.92h-0.636v-0.67Z"
          transform="translate(-316 -2430.69)"/>
    <path id="Fill_31" data-name="Fill 31" class="cls-1" d="M379.488,2460.16h1.961v0.67h-1.283v0.65h1.283v0.65h-1.283v0.95h1.283v0.67h-1.961v-3.59Z"
          transform="translate(-316 -2430.69)"/>
</svg>
