<svg id="_-e-warrior" data-name="-e-warrior" xmlns="http://www.w3.org/2000/svg" width="107.656" height="12" viewBox="0 0 107.656 12"><defs><style>.cls-1{fill:#fff;fill-rule:evenodd}</style></defs><path id="Fill_1" data-name="Fill 1" class="cls-1" d="M670.959 665.026c1.188-.08 2.751.23 3.311-.486a5.66 5.66 0 00.51-1.343c.082-.22.165-.423.255-.672a1.591 1.591 0 00.185-.741.852.852 0 00-.556-.255c-.771-.125-1.664 0-2.431-.046-.462 1.144-.856 2.355-1.274 3.543m-3.2-4.98h6.693c1.053 0 2.2-.051 3.289.047 1.021.092 2.458.287 2.5 1.343a4.452 4.452 0 01-.417 1.552 10.743 10.743 0 01-.51 1.459 3.276 3.276 0 01-2.362 1.367c.673.3 1.555.729 1.2 1.807a13.739 13.739 0 00-.9 1.968 3.175 3.175 0 00.764 2.386H671.7c.484-1.349 1.035-2.966 1.552-4.447a1.43 1.43 0 00.162-.672c-.1-.359-.881-.3-1.343-.324-.554-.026-1.1-.029-1.622-.023-.667 1.795-1.3 3.627-1.922 5.466h-5c1.419-3.97 2.784-7.994 4.239-11.929" transform="translate(-572.594 -660)"/><path id="Fill_3" data-name="Fill 3" class="cls-1" d="M660 661.506c-1.545.1-2.875.376-3.5 1.413a5.31 5.31 0 00-.347.927c-.779 2.207-1.611 4.488-2.362 6.67 1.44-.062 2.771-.266 3.474-1.089a3.568 3.568 0 00.486-1.135c.751-2.1 1.5-4.269 2.224-6.346a.717.717 0 00.115-.463.687.687 0 00-.092.023m5.582-1.459c-.944 2.72-1.89 5.428-2.849 8.175a4.8 4.8 0 01-.741 1.6 5.848 5.848 0 01-2.571 1.413 14.833 14.833 0 01-3.312.649c-2.492.233-5.313.015-7.829.092a868.953 868.953 0 012.919-8.176 4.453 4.453 0 011-1.784 7.155 7.155 0 013.868-1.69c2.749-.485 6.294-.2 9.52-.278" transform="translate(-572.594 -660)"/><path id="Fill_6" data-name="Fill 6" class="cls-1" d="M645.783 660.046h4.956c-1.388 3.986-2.819 7.928-4.192 11.929h-5c1.418-3.972 2.785-7.994 4.239-11.929" transform="translate(-572.594 -660)"/><path id="Fill_8" data-name="Fill 8" class="cls-1" d="M633.531 665.026c1.094-.053 2.4.148 3.08-.277a1.742 1.742 0 00.556-.973 12.374 12.374 0 00.648-1.992c-.615-.488-1.972-.236-3.01-.3-.443 1.163-.837 2.374-1.274 3.543m-3.2-4.98c3.2.1 6.485-.148 9.727.024 1.047.056 2.494.269 2.733 1.088a2.1 2.1 0 010 .672 11.649 11.649 0 01-.464 1.39 7.763 7.763 0 01-.485 1.343 3.428 3.428 0 01-2.317 1.251c.7.273 1.567.777 1.228 1.829a11.841 11.841 0 01-.6 1.113 2.906 2.906 0 00-.347 1.343 3.828 3.828 0 00.811 1.876h-6.323a696.42 696.42 0 011.551-4.447 1.5 1.5 0 00.162-.672c-.092-.358-.884-.3-1.343-.324a27.713 27.713 0 00-1.621-.023c-.691 1.78-1.289 3.652-1.945 5.466h-4.98q2.1-5.976 4.216-11.929" transform="translate(-572.594 -660)"/><path id="Fill_10" data-name="Fill 10" class="cls-1" d="M618.013 665.026c1.246-.085 2.637.225 3.265-.44a2.326 2.326 0 00.324-.764 12.013 12.013 0 00.672-2.038c-.615-.489-1.973-.236-3.011-.3-.426 1.171-.854 2.342-1.25 3.543m-3.22-4.98c3.109.1 6.513-.147 9.728.024 1.023.054 2.432.248 2.71 1.018a3.265 3.265 0 01-.394 2.062 8.321 8.321 0 01-.532 1.413 3.4 3.4 0 01-2.316 1.251c.719.263 1.58.815 1.2 1.853-.126.348-.395.7-.579 1.089a3.029 3.029 0 00-.347 1.3 3.641 3.641 0 00.81 1.923h-6.323c.475-1.354 1.03-2.977 1.552-4.447a1.506 1.506 0 00.162-.672c-.093-.358-.885-.3-1.343-.324-.553-.026-1.1-.029-1.622-.023-.688 1.781-1.286 3.654-1.945 5.466h-4.98q2.1-5.976 4.215-11.929" transform="translate(-572.594 -660)"/><path id="Fill_12" data-name="Fill 12" class="cls-1" d="M607.428 661.506a4.517 4.517 0 00-3.219 1.066 3.929 3.929 0 00-.695 1.459c-.183.5-.38 1.038-.579 1.6h3.2c.409-1.2.866-2.472 1.274-3.637a.783.783 0 00.115-.509.59.59 0 00-.092.023m5.605-1.459q-2.115 5.955-4.215 11.928h-4.91c.543-1.635 1.123-3.231 1.691-4.841h-3.174c-.6 1.582-1.151 3.218-1.714 4.841h-6.025c-.056-.085.125-.16.208-.232a6.527 6.527 0 001.622-2.061c.254-.558.412-1.177.625-1.761.433-1.191.818-2.3 1.251-3.52a9.069 9.069 0 01.694-1.691c2.123-3.42 8.5-2.527 13.943-2.663" transform="translate(-572.594 -660)"/><path id="Fill_14" data-name="Fill 14" class="cls-1" d="M576.809 660.046h4.957c-1.2 3.5-2.451 6.953-3.659 10.446a6.7 6.7 0 002.131-.487 3.143 3.143 0 001.574-1.087 6.992 6.992 0 00.394-1.112c.9-2.532 1.9-5.264 2.756-7.76h4.938l-3.682 10.469a8.327 8.327 0 002.177-.51 3.166 3.166 0 001.575-1.087 7.326 7.326 0 00.393-1.112c.889-2.526 1.852-5.264 2.734-7.76h6.183c.023.073-.087.083-.139.116a5.638 5.638 0 00-.671.464 6.488 6.488 0 00-1.274 2.177c-.714 1.647-1.21 3.3-1.853 5.049a4.888 4.888 0 01-1.274 2.153c-2.5 2.191-7.029 2-11.789 1.97q.246-.566.486-1.136a16.916 16.916 0 01-4.516 1.112c-1.815.1-3.715-.023-5.651.024q2.082-5.99 4.215-11.929" transform="translate(-572.594 -660)"/></svg>