<svg id="duraflex" xmlns="http://www.w3.org/2000/svg" width="113.219" height="20" viewBox="0 0 113.219 20"><defs><style>.cls-1{fill:#fefefe;fill-rule:evenodd}</style></defs><path id="Fill_1" data-name="Fill 1" class="cls-1" d="M844.652 2452.23h8.771c.2 0 .514-.02.71-.04a6.127 6.127 0 002.126-.69 3.607 3.607 0 001.395-2.01l.412-1.49c.119-.43.2-.74.2-.74.049-.19.111-.5.14-.69a7.921 7.921 0 00.035-2.48 1.51 1.51 0 00-1.363-1.07c-.435-.05-.827-.09-1.177-.11s-.555-.04-.555-.04c-.2 0-.514-.01-.708-.01h-7.7a.479.479 0 00-.438.35l-2.113 8.68a.262.262 0 00.27.34m3.206-2.62l1-4.12a.479.479 0 01.439-.35h4.538c.195 0 .512.01.706.03a1.671 1.671 0 01.483.11.84.84 0 01.41.42 1.513 1.513 0 01.065.74 8.98 8.98 0 01-.2 1.05 8.606 8.606 0 01-.4 1.29 2.157 2.157 0 01-.5.75 1.548 1.548 0 01-.711.34 4.642 4.642 0 01-.692.07c-.2.01-.515.01-.71.01h-4.167a.263.263 0 01-.271-.34" transform="translate(-843 -2437.75)"/><path id="Fill_3" data-name="Fill 3" class="cls-1" d="M870.452 2450.91a7.474 7.474 0 00.879-1.81c.063-.19.152-.5.2-.69l1.271-5.22a.263.263 0 00-.271-.34h-2.213a.471.471 0 00-.438.34l-1.041 4.28c-.048.19-.125.5-.174.69 0 0-.111.43-.2.71a1.422 1.422 0 01-.214.43 4.244 4.244 0 01-.521.5l-.175.06a2.483 2.483 0 01-.6.13c-.229.02-.489.03-.785.03h-2.321a6.774 6.774 0 01-.9-.07 1.208 1.208 0 01-.548-.18.556.556 0 01-.242-.38 1.86 1.86 0 01.006-.64c.039-.26.124-.63.124-.63.043-.19.116-.5.163-.69l1.03-4.24a.262.262 0 00-.27-.34h-2.213a.471.471 0 00-.439.34l-1.237 5.08c-.046.19-.114.5-.151.7a8.142 8.142 0 00-.152 1.25 2.064 2.064 0 00.268 1.06 1.643 1.643 0 00.751.64 4.605 4.605 0 001.222.31 16.071 16.071 0 001.688.1h2.144c.75 0 1.418-.01 2-.04a8.568 8.568 0 001.189-.16 3.4 3.4 0 00.684-.23 5.046 5.046 0 001.486-.99" transform="translate(-843 -2437.75)"/><path id="Fill_5" data-name="Fill 5" class="cls-1" d="M872.637 2452.23h2.213a.471.471 0 00.439-.34l.421-1.73a.48.48 0 01.439-.35h4.1c.195 0 .512.02.7.04a.605.605 0 01.661.8c-.024.19-.081.5-.128.69l-.134.55a.264.264 0 00.272.34h2.213a.472.472 0 00.439-.34l.241-1c.048-.19.113-.5.148-.69a2.481 2.481 0 00.029-.65.842.842 0 00-.284-.52 1.115 1.115 0 00-.561-.25c-.227-.04-.378-.07-.378-.07-.188-.04-.186-.12 0-.18 0 0 .312-.09.592-.18a2.144 2.144 0 00.75-.42 2.544 2.544 0 00.589-.78 5.958 5.958 0 00.461-1.33 5.014 5.014 0 00.171-1.38 1.525 1.525 0 00-.319-.92 1.712 1.712 0 00-.859-.51 6.187 6.187 0 00-1.1-.14 16.73 16.73 0 00-.708-.02h-8.13a.468.468 0 00-.438.34l-2.117 8.7a.262.262 0 00.27.34m3.8-5.04l.418-1.72a.47.47 0 01.438-.34h4.563s.217.01.423.03a.905.905 0 01.462.14.492.492 0 01.182.34 1.836 1.836 0 01-.067.6 6.137 6.137 0 01-.194.65.925.925 0 01-.282.4 1.112 1.112 0 01-.493.2 4.417 4.417 0 01-.819.06.979.979 0 01-.184-.01h-.045c-.077 0-.3-.01-.493-.01H876.7a.263.263 0 01-.271-.34" transform="translate(-843 -2437.75)"/><path id="Fill_7" data-name="Fill 7" class="cls-1" d="M885.439 2452.23h2.513a.821.821 0 00.579-.28l.905-1.14a.864.864 0 01.58-.28h5.436a.5.5 0 01.449.33l.294 1.04a.5.5 0 00.45.33h2.484a.237.237 0 00.252-.32l-2.7-8.73a.506.506 0 00-.456-.33h-3.2a.875.875 0 00-.582.28l-7.133 8.82c-.125.16-.068.28.127.28m5.934-3.92l2.5-3.15c.125-.16.27-.14.325.04l.922 3.06a.247.247 0 01-.256.33H891.5c-.195 0-.253-.13-.128-.28" transform="translate(-843 -2437.75)"/><path id="Fill_9" data-name="Fill 9" class="cls-1" d="M903.4 2452.23h2.156a.47.47 0 00.438-.34l.621-2.55a.47.47 0 01.438-.34h6.134a.48.48 0 00.439-.35l.345-1.42a.262.262 0 00-.27-.34h-6.131a.271.271 0 01-.271-.35l.282-1.15a.478.478 0 01.438-.35h6.5a.473.473 0 00.44-.34l.365-1.51a.262.262 0 00-.27-.34h-9.37a.469.469 0 00-.438.34l-2.117 8.7a.262.262 0 00.27.34" transform="translate(-843 -2437.75)"/><path id="Fill_11" data-name="Fill 11" class="cls-1" d="M919.349 2443.19a.263.263 0 00-.27-.34h-2.214a.47.47 0 00-.438.34l-2.118 8.7a.263.263 0 00.271.34h8.756a.471.471 0 00.439-.34l.4-1.65a.263.263 0 00-.271-.34h-5.834a.269.269 0 01-.27-.35z" transform="translate(-843 -2437.75)"/><path id="Fill_13" data-name="Fill 13" class="cls-1" d="M928.957 2445.3a.483.483 0 01.438-.34h8.792c.195 0 .277-.13.182-.29l-.9-1.53a.681.681 0 00-.529-.29h-9.9a.472.472 0 00-.439.34l-2.117 8.7a.263.263 0 00.271.34h9.061a1.023 1.023 0 00.618-.25l1.683-1.6c.144-.14.1-.26-.092-.26h-7.891a.262.262 0 01-.27-.34l.239-.99a.47.47 0 01.439-.34h6.519a.478.478 0 00.438-.35l.285-1.16a.271.271 0 00-.272-.35H929a.263.263 0 01-.272-.34z" transform="translate(-843 -2437.75)"/><path id="Fill_15" data-name="Fill 15" class="cls-1" d="M947.116 2447.97a.31.31 0 01.051-.39c1.734-1.61 3.5-3.16 5.329-4.66a.127.127 0 00-.04-.24l-2.652-.96a.44.44 0 00-.424.09 143.683 143.683 0 00-4.271 4.21.19.19 0 01-.321-.04c-.238-.42-.477-.85-.714-1.28q-1.767-3.3-3.461-6.65a.554.554 0 00-.466-.3c-11.6.49-23.157 2.31-34.665 4.34-.171.03-.171.04 0 .02a269.788 269.788 0 0131.986-1.42.621.621 0 01.483.3c1.326 2.2 2.666 4.4 4.038 6.58a.351.351 0 01-.083.38.252.252 0 01-.056.05c-2.465 2.27-4.883 4.6-7.292 6.93a1.148 1.148 0 01-.66.28 271.594 271.594 0 01-31.158-2.23c-.2-.03-.2-.02 0 .02a277.732 277.732 0 0032.615 4.74.955.955 0 00.653-.27q2.018-2.055 4.054-4.1a.517.517 0 00.171-.12q1.87-1.89 3.775-3.74a.206.206 0 01.335.03q1.359 2.25 2.784 4.47a.337.337 0 00.38.11q1.459-.585 2.927-1.17a.175.175 0 00.1-.28c-1.179-1.54-2.31-3.11-3.414-4.7" transform="translate(-843 -2437.75)"/><path id="Fill_18" data-name="Fill 18" class="cls-1" d="M950.126 2448.05a.423.423 0 01.068-.55c1.409-1.28 2.843-2.53 4.323-3.73a.2.2 0 00-.049-.37l-.228-.1a.678.678 0 00-.618.07c-1.7 1.32-3.343 2.71-4.957 4.13a.415.415 0 00-.068.55c1.078 1.42 2.184 2.82 3.334 4.19a.573.573 0 00.58.13l.427-.15a.238.238 0 00.14-.39q-1.524-1.86-2.952-3.78" transform="translate(-843 -2437.75)"/><path id="Fill_20" data-name="Fill 20" class="cls-1" d="M956.158 2444.09a.443.443 0 00-.41.09 97.918 97.918 0 00-4.066 3.36.361.361 0 00-.068.46c.81 1.15 1.639 2.27 2.494 3.38a.308.308 0 00.372.12.2.2 0 00.022-.32q-1.236-1.575-2.4-3.18a.344.344 0 01.066-.45c1.284-1.1 2.59-2.17 3.932-3.2.131-.09.158-.21.063-.26" transform="translate(-843 -2437.75)"/><path id="Fill_22" data-name="Fill 22" class="cls-1" d="M848.475 2453.85a.631.631 0 00-.35-.21 1.977 1.977 0 00-.593-.07h-3.606l-.926 3.83h1.193l.238-.99h1.962a.435.435 0 01.381.12.482.482 0 01.013.36l-.122.51h1.193l.165-.69a.962.962 0 00.038-.4.355.355 0 00-.116-.22.523.523 0 00-.229-.1q-.14-.03-.294-.06c.141-.04.269-.07.383-.11a.9.9 0 00.306-.18.951.951 0 00.239-.31 2.638 2.638 0 00.188-.55 2.03 2.03 0 00.069-.56.593.593 0 00-.131-.37m-1.168 1.11c-.025.1-.051.19-.076.26a.372.372 0 01-.115.16.4.4 0 01-.2.08 1.5 1.5 0 01-.334.03h-.076a.164.164 0 00-.075-.01h-1.774l.238-.98h1.861c.127 0 .234.01.317.01a.42.42 0 01.189.06.207.207 0 01.074.14.709.709 0 01-.028.25" transform="translate(-843 -2437.75)"/><path id="Fill_25" data-name="Fill 25" class="cls-1" d="M849.336 2453.57l-.926 3.83h4.326l.209-.86h-3.159l.166-.68h2.948l.184-.76h-2.95l.162-.67h3.159l.208-.86h-4.328z" transform="translate(-843 -2437.75)"/><path id="Fill_27" data-name="Fill 27" class="cls-1" d="M858.583 2453.95a.69.69 0 00-.154-.2.574.574 0 00-.242-.12 2.43 2.43 0 00-.347-.07c-.133-.02-.289-.02-.465-.03h-.6c-.42 0-.769.01-1.05.02s-.485.03-.613.05a2.077 2.077 0 00-.5.11 1.094 1.094 0 00-.359.22 1.112 1.112 0 00-.25.35 2.479 2.479 0 00-.167.49 1.829 1.829 0 00-.066.52.521.521 0 00.118.33.59.59 0 00.316.19 3.186 3.186 0 00.53.07q.321.03.763.03t1.012 0h.3a1.172 1.172 0 01.226.04.226.226 0 01.126.1.3.3 0 010 .2.363.363 0 01-.1.2.469.469 0 01-.222.11 3.406 3.406 0 01-.414.04h-1.175c-.137-.01-.231-.01-.28-.01a.476.476 0 01-.218-.06.172.172 0 01-.082-.1.229.229 0 010-.12l.031-.13h-1.167c-.029.11-.055.22-.078.32a1.288 1.288 0 00-.04.27.689.689 0 00.035.24.572.572 0 00.156.21 1.071 1.071 0 00.588.17 10.733 10.733 0 001.11.05c.465 0 .85-.01 1.151-.03s.509-.03.615-.04a2.137 2.137 0 00.485-.1 1.153 1.153 0 00.367-.21 1.239 1.239 0 00.267-.34 2.286 2.286 0 00.18-.51 1.529 1.529 0 00.05-.66.544.544 0 00-.257-.35 1.458 1.458 0 00-.549-.14c-.234-.02-.51-.02-.831-.02h-.941c-.155-.01-.321-.01-.493-.02a.481.481 0 01-.273-.07.2.2 0 01-.052-.22.408.408 0 01.124-.23.52.52 0 01.251-.09 2.377 2.377 0 01.418-.03c.172 0 .384-.01.639-.02h.152c.176 0 .316 0 .427.01a.784.784 0 01.254.05.165.165 0 01.115.11.483.483 0 010 .21h1.157c.027-.11.048-.21.062-.3a1.376 1.376 0 00.017-.27.583.583 0 00-.053-.22" transform="translate(-843 -2437.75)"/><path id="Fill_29" data-name="Fill 29" class="cls-1" d="M859.51 2453.57l-.926 3.83h1.191l.927-3.83h-1.192z" transform="translate(-843 -2437.75)"/><path id="Fill_31" data-name="Fill 31" class="cls-1" d="M865.588 2453.57l-.694 2.87-1.637-2.87h-1.88l-.927 3.83h1.116l.695-2.88 1.638 2.88h1.879l.927-3.83h-1.117z" transform="translate(-843 -2437.75)"/><path id="Fill_33" data-name="Fill 33" class="cls-1" d="M872.566 2453.67a.721.721 0 00-.352-.08 4.728 4.728 0 00-.6-.06H871a8.867 8.867 0 00-.931.04 1.709 1.709 0 00-.383.04 3.817 3.817 0 00-.373.1 1.136 1.136 0 00-.524.37 1.957 1.957 0 00-.281.65.651.651 0 00.132.7 1.221 1.221 0 00.787.21l1.032.03h.89a1.188 1.188 0 01.629.11.481.481 0 01.069.53.853.853 0 01-.27.48 1.318 1.318 0 01-.617.19 7.7 7.7 0 01-1.027.05l-.753-.01a1.608 1.608 0 01-.328-.03c-.1-.02-.183-.04-.268-.06a.293.293 0 01-.233-.21 1.289 1.289 0 01.053-.43l.018-.08h-.471a1.287 1.287 0 00-.014.86.613.613 0 00.482.3c.23.03.389.05.474.05a2.243 2.243 0 00.261.01h.967a7.393 7.393 0 00.838-.04 2.315 2.315 0 00.661-.14 1.037 1.037 0 00.466-.35 1.749 1.749 0 00.248-.58.9.9 0 00-.05-.76.734.734 0 00-.541-.26c-.15-.02-.252-.04-.3-.04s-.136-.01-.245-.01h-1.761a.961.961 0 01-.54-.12.473.473 0 01-.076-.48 1.049 1.049 0 01.137-.34.536.536 0 01.287-.22 2.242 2.242 0 01.623-.12 3.465 3.465 0 00.413-.02c.177-.01.309-.02.394-.02h.163c.174 0 .329.01.462.01s.253.02.354.03a1.377 1.377 0 01.419.1.272.272 0 01.137.18.871.871 0 01-.035.38h.471a.931.931 0 00-.045-.75.616.616 0 00-.235-.21" transform="translate(-843 -2437.75)"/><path id="Fill_35" data-name="Fill 35" class="cls-1" d="M877.745 2453.57l-2.246 1.8-1.362-1.8h-.667l1.7 2.2-.393 1.63h.471l.394-1.63 2.772-2.2h-.669z" transform="translate(-843 -2437.75)"/><path id="Fill_37" data-name="Fill 37" class="cls-1" d="M882.541 2453.67a.715.715 0 00-.351-.08 4.728 4.728 0 00-.6-.06h-.61a8.847 8.847 0 00-.93.04 1.711 1.711 0 00-.384.04 3.8 3.8 0 00-.372.1 1.128 1.128 0 00-.523.37 1.917 1.917 0 00-.282.65.649.649 0 00.132.7 1.218 1.218 0 00.786.21l1.034.03h.889a1.191 1.191 0 01.629.11.479.479 0 01.068.53.847.847 0 01-.27.48 1.309 1.309 0 01-.616.19 7.719 7.719 0 01-1.028.05l-.752-.01a1.618 1.618 0 01-.329-.03c-.095-.02-.182-.04-.267-.06a.293.293 0 01-.233-.21 1.282 1.282 0 01.052-.43l.019-.08h-.473a1.292 1.292 0 00-.013.86.612.612 0 00.481.3c.23.03.389.05.475.05a2.252 2.252 0 00.262.01h.965a7.375 7.375 0 00.837-.04 2.315 2.315 0 00.661-.14 1.035 1.035 0 00.467-.35 1.791 1.791 0 00.248-.58.9.9 0 00-.051-.76.731.731 0 00-.54-.26c-.151-.02-.252-.04-.3-.04s-.135-.01-.243-.01h-1.762a.959.959 0 01-.54-.12.468.468 0 01-.076-.48 1.027 1.027 0 01.137-.34.533.533 0 01.287-.22 2.226 2.226 0 01.623-.12 3.465 3.465 0 00.413-.02c.177-.01.309-.02.393-.02h.164c.173 0 .328.01.462.01s.253.02.354.03a1.385 1.385 0 01.419.1.269.269 0 01.137.18.875.875 0 01-.036.38h.471a.923.923 0 00-.045-.75.609.609 0 00-.235-.21" transform="translate(-843 -2437.75)"/><path id="Fill_39" data-name="Fill 39" class="cls-1" d="M883.522 2453.57l-.1.39h1.955l-.833 3.44h.471l.833-3.44h1.966l.1-.39h-4.391z" transform="translate(-843 -2437.75)"/><path id="Fill_41" data-name="Fill 41" class="cls-1" d="M888.419 2453.57l-.927 3.83h3.885l.094-.38h-3.414l.338-1.4h3.253l.092-.39h-3.252l.306-1.27h3.375l.1-.39h-3.845z" transform="translate(-843 -2437.75)"/><path id="Fill_43" data-name="Fill 43" class="cls-1" d="M893.241 2453.57l-.926 3.83h.47l.832-3.44 1.587 3.44h.379l3.259-3.44-.834 3.44h.472l.926-3.83h-.755l-3.118 3.29-1.523-3.29h-.769z" transform="translate(-843 -2437.75)"/></svg>