<svg data-name="icon/4" xmlns="http://www.w3.org/2000/svg" width="32" height="31.938" viewBox="0 0 32 31.938"><path class="cls-1" fill="#182353" d="M28.37 14.837h3.62v10.561h-3.62V14.837zm-15.17 0L6.39-.013h-6.4l9.79 21.349a8.507 8.507 0 011.03-.522 15.809 15.809 0 0110.97 0c2.71 1.145 3.11 2.832 3.11 3.735a3.553 3.553 0 01-.11.849h1.72V14.837H13.2zm9.82 12.792a6.676 6.676 0 01-.94.521c-.09.046-.2.091-.3.135a15.824 15.824 0 01-10.97 0l-.3-.135a8.031 8.031 0 01-.94-.521 4.942 4.942 0 01-.93-.792v1.332c0 .671.33 1.938 2.54 2.873a14.9 14.9 0 0010.24 0c2.21-.935 2.54-2.2 2.54-2.873v-1.333a5.376 5.376 0 01-.94.793zm-6.72-5.924a10.8 10.8 0 00-5.73 1.352 1.924 1.924 0 00-1 1.492 1.887 1.887 0 00.94 1.449 12.684 12.684 0 0011.57 0 2.754 2.754 0 00.64-.6 1.468 1.468 0 00.3-.849c0-1.57-3.01-2.844-6.72-2.844z"/></svg>