<svg xmlns="http://www.w3.org/2000/svg" width="95.906" height="21.812" viewBox="0 0 95.906 21.812"><path data-name="Fill 1" d="M80.791 5.108h15.082c.049 1.031.025 2.062 0 3.092-4.052-.024-8.1-.024-12.157-.047a11.586 11.586 0 000 1.581h8.134v2.781c-2.734-.024-5.467-.024-8.2-.048.048 1.51.048 3.02.048 4.507-.959.024-1.942.047-2.9 0V5.108zm-9.952 3.165c-.623.91-1.174 1.893-1.8 2.828 1.367.1 2.757.024 4.124.048-.575-1.007-1.247-1.966-1.846-3a.564.564 0 00-.48.12zM69.401 5.18c1.1-.024 2.23-.024 3.333 0 2.566 3.931 5.059 7.886 7.6 11.818-1.1.047-2.23.023-3.333 0-.6-.959-1.247-1.87-1.822-2.829a.413.413 0 00-.432-.144c-2.518.024-5.06-.024-7.578.024-.647.983-1.342 1.942-2.014 2.925h-3.237c.983-1.631 2.038-3.189 3.045-4.794a308.593 308.593 0 014.437-7zM48.275 8.2v1.487h8.775a4.671 4.671 0 001.415-.1c.024-.432 0-.887 0-1.318a6.969 6.969 0 00-1.223-.073h-8.968zm-2.782-3.044h12.973a2.948 2.948 0 012.518 1.079 4 4 0 01.336 2.181 6.017 6.017 0 01-.168 1.966c-.1.264-.312.455-.384.719a3 3 0 01.576 1.654v4.219c-.984 0-1.967.047-2.95 0 0-1.487.072-2.973.024-4.483-1.558-.072-3.141-.024-4.724-.048h-5.539v4.507c-.935.024-1.894.024-2.829 0 .1-3.908.1-7.839.167-11.794zm-15.922.7a3.458 3.458 0 012.254-.7c4.125.024 8.249.024 12.374.048v3c-4.149 0-8.3-.047-12.446-.024-.047 1.918 0 3.812-.023 5.73 3.093.023 6.186-.025 9.279.023.048-.479.024-.958.048-1.438H34.15c-.024-.935 0-1.845 0-2.781h10.024v7.288c-1.631.071-3.262 0-4.892.023h-7.745a2.309 2.309 0 01-1.2-.263 3.386 3.386 0 01-1.535-1.582 2.605 2.605 0 01-.12-1.055V8.133a3.11 3.11 0 01.887-2.278zM14.15.53c1.559-.168 3.093-.383 4.652-.527h11.989c-1.079 2.037-2.134 4.075-3.285 6.088-2.254 0-4.508-.048-6.738-.048A10.957 10.957 0 0014.126 8.2a6.13 6.13 0 00-2.422 3.644 3.422 3.422 0 00.408 2.78 3.313 3.313 0 002.781 1.031c1.823.072 3.669.024 5.515.048.12-.192.216-.408.336-.6-.887-.1-1.774-.024-2.638-.048a8.123 8.123 0 01-2.374-.432 9.374 9.374 0 00-2.325-.167 5.651 5.651 0 01.575-.5c.528-.072 1.079.024 1.631-.047 1.007-.145 1.99-.384 3-.5 1.007-.024 2.038 0 3.045-.024.048-.168.12-.336.168-.5h-2.614a8.533 8.533 0 01-2.325-.48 8.536 8.536 0 00-2.35-.192 2.816 2.816 0 01.719-.455c.5-.048.983.024 1.487-.024.959-.144 1.918-.384 2.9-.5h5.156c-1.775 3.523-3.6 7.023-5.372 10.546-2.206.048-4.412.025-6.618.025a14.94 14.94 0 01-2.062-.073c-1.007-.215-1.99-.455-3-.67-.983-.072-1.99.023-2.973-.049-.336-.143-.647-.383-.983-.551.959-.048 1.942 0 2.9-.024 1.079.024 2.134-.288 3.19-.335h8.2c.072-.168.168-.336.24-.5h-8.44a33.652 33.652 0 01-4.341-.527H3.167a2.108 2.108 0 01-1.1-.551c1.079-.144 2.182 0 3.262-.073.911-.167 1.8-.407 2.709-.551 3.717-.024 7.434 0 11.174 0 .1-.168.192-.335.312-.527-4.1-.024-8.2 0-12.3 0-1.079-.144-2.134-.431-3.213-.575-.816-.024-1.607 0-2.422 0-.216-.216-.408-.432-.624-.648.888-.024 1.751 0 2.638 0 .935-.095 1.847-.335 2.782-.407h4.052a3.815 3.815 0 00-.479-.575h-4.2c-.815-.12-1.582-.384-2.4-.5-.935-.025-1.87 0-2.8-.025-.168-.215-.312-.431-.48-.647 1.031-.024 2.062 0 3.094 0 .935-.1 1.846-.455 2.781-.527h3.5c-.024-.168-.024-.336-.048-.5-1.151-.048-2.3 0-3.453-.024a11.569 11.569 0 01-2.422-.36 18.953 18.953 0 00-3.5-.191l.024.119a.246.246 0 00-.048-.119.427.427 0 01.168-.048 2.311 2.311 0 01.6-.48c.792-.048 1.607.024 2.4-.024.887-.144 1.774-.384 2.685-.5 1.2-.025 2.4 0 3.621 0 .072-.192.12-.384.192-.576h-3.6c-.743-.119-1.463-.431-2.206-.575-.935-.024-1.87 0-2.806-.024a1.451 1.451 0 01.864-.527c.767 0 1.51.024 2.278 0 .815-.12 1.558-.432 2.373-.575 1.367-.025 2.71 0 4.077 0 .168-.168.336-.336.48-.5-1.271-.024-2.566 0-3.837 0a21.631 21.631 0 00-2.782-.431H2.091a7.133 7.133 0 01.84-.648c.863-.048 1.726 0 2.589-.024.864-.143 1.727-.407 2.59-.551 1.487-.024 2.95 0 4.436 0a3.247 3.247 0 001.391-.5c-1.511-.024-3 .024-4.508-.024-.839-.168-1.655-.432-2.47-.6-1.031-.072-2.038.048-3.069-.048.288-.168.5-.432.791-.6 1.007-.047 1.99 0 3-.024 1.031-.12 2.062-.311 3.117-.407 5.131 0 10.287.048 15.418.048.12-.192.264-.384.384-.576-4.82-.023-9.616 0-14.435 0-.912-.143-1.8-.455-2.71-.575-1.223-.024-2.446 0-3.669-.024.288-.192.552-.431.815-.623h3.789a44.632 44.632 0 015.06-.527h12.037c.1-.168.192-.336.288-.528H16.91a26.708 26.708 0 01-3.908-.527H9.573a3.846 3.846 0 011.654-.6 15.159 15.159 0 012.926-.216z" fill="#fff" fill-rule="evenodd"/></svg>