<svg xmlns="http://www.w3.org/2000/svg" width="133.192" height="17.313" viewBox="0 0 133.192 17.313"><path data-name="Fill 1" d="M84.362 8.474c-1.39 0-1.4 0-1.85.772l-.62 1.058h11.74l-1.42 2.483h-11.73l-.83 1.431a.261.261 0 00.25.4h11.25l-1.55 2.691h-11.06c-1.19 0-3.56-.724-1.76-3.841l2.62-4.529c1.73-2.98 1.89-2.985 6.17-2.985h11.01l-1.45 2.521h-10.77zm-32.58-2.521h10.17l-1.45 2.521h-9.77c-1.6 0-3.29 1.712-4.08 3.7a2.384 2.384 0 00-.15 1.684 1.162 1.162 0 001.27.761h9.19l-1.55 2.691h-8.84a2.807 2.807 0 01-2.99-2.047c-.86-2.8 1.03-6.137 3.27-7.995 1.58-1.312 3.84-1.314 4.93-1.314zm15.47 0l-2.49 4.351h8.6l2.52-4.351h3.29l-6.54 11.356h-3.29l2.6-4.508h-8.62l-2.61 4.508h-3.28l6.54-11.356h3.28zm-48.99 11.355l6.55-11.355h3.32l-6.56 11.355h-3.31zm27.09-11.355h-10.93c-3.22 0-5.76.828-5.98 3.265-.21 2.214 5.66 3.184 8.11 4.016 1 .34 1.23.629 1.05.9-.27.4-1.29.487-2.55.487h-9.91l-1.55 2.692h11.41c5.99 0 6.73-2.2 6.69-3.593-.06-2.307-5.63-3.1-8.63-4.142-.46-.149-.81-.282-.69-.526a2.141 2.141 0 011.84-.575h9.56zm-34.38 0h11.83l-1.45 2.521h-12.2c-.466 0-.546 0-.734.33l-.859 1.5h12.3l-1.43 2.483H6.124L3.509 17.31H-.002l4.851-8.374c1.78-3.088 2.364-2.982 6.123-2.982zm86.68 7.32l-2.31 4.036h-3.29l6.54-11.356h9.77c4.69 0 6.28 3.868.19 5.791l-5.72 1.582 7.04 3.983h-5.08zm.53-.87l8.13-2.256c1.79-.5 3.07-.861 3.07-1.24 0-.417-.66-.433-2.13-.433h-6.82zm24.42 4.9h-9.02a.3.3 0 01-.28-.491l4.51-7.809a.294.294 0 01.56 0l4.52 7.809a.3.3 0 01-.29.491zm10.2 0h-9.02a.3.3 0 01-.28-.491l4.51-7.809a.294.294 0 01.56 0l4.51 7.809a.3.3 0 01-.28.491zm-5.1-8.834h-9.01a.3.3 0 01-.29-.492l4.51-7.809a.294.294 0 01.56 0l4.52 7.808a.3.3 0 01-.29.493z" fill="#fff" fill-rule="evenodd"/></svg>