<svg id="tuuk" xmlns="http://www.w3.org/2000/svg" width="129.97" height="15.78" viewBox="0 0 129.97 15.78"><defs><style>.cls-1{fill:#fefefe;fill-rule:evenodd}</style></defs><path id="Fill_1" data-name="Fill 1" class="cls-1" d="M1017.51 2444.12l-1.23 1.29 2.72.02-1.47 2.84a2.53 2.53 0 01-1.67 1.38l3.45.02 2.14-4.17h.97l.74-1.36z" transform="translate(-1015 -2439.66)"/><path id="Fill_3" data-name="Fill 3" class="cls-1" d="M1023.79 2444.15l-1.68 3.28s-.95 2.13 1.3 2.3l5.72.04s-2.01-.45-1.34-1.96l1.73-3.63-2.1-.01-1.74 3.47a1.047 1.047 0 01-1.04.5s-.86.06-.53-.7l1.6-3.28z" transform="translate(-1015 -2439.66)"/><path id="Fill_5" data-name="Fill 5" class="cls-1" d="M1031.9 2444.22h1.48l-1.6 3.35a.957.957 0 01-1 .6s-.9 0-.49-.76z" transform="translate(-1015 -2439.66)"/><path id="Fill_7" data-name="Fill 7" class="cls-1" d="M1035.76 2444.2l-1.91 4.01a3.714 3.714 0 01-2.32 1.55l3.87.02 1.23-2.69 1.14 2.66 2.45.01-1-1.84s-.45-.74.59-1.58l3.27-2.07-2.76-.02-3.46 2.33 1.12-2.37z" transform="translate(-1015 -2439.66)"/><path id="Fill_9" data-name="Fill 9" class="cls-1" d="M1074.37 2439.74l7.63.07-.52 1.22-5.77-.05-.42.98a2.573 2.573 0 011.48-.34l2.43.02c1.49.02 2.18.41 1.65 1.66l-.16.37c-.73 1.72-1.88 1.86-4.16 1.84l-1.68-.02c-2.11-.02-3.08-.19-2.51-1.52l.14-.33 1.97.01c-.2.48-.09.61.89.62l2.01.02c.99.01 1.19-.21 1.42-.76.27-.64.04-.71-.94-.72l-2.26-.02a.893.893 0 00-.79.37l-1.86-.01z" transform="translate(-1015 -2439.66)"/><path id="Fill_11" data-name="Fill 11" class="cls-1" d="M1042.58 2449.76l11.38.04 1.02-2.53-7.88-.03 2.95-7.34-3.5-.01z" transform="translate(-1015 -2439.66)"/><path id="Fill_13" data-name="Fill 13" class="cls-1" d="M1056.17 2446.36l3.5.03c-.41 1.05.05 1.13 1.06 1.14l4.29.03a1.724 1.724 0 001.84-.83c.35-.85-.04-.91-4.55-.94-5.27-.04-5.65-.58-4.67-3.01.72-1.78 1.47-3.15 5.89-3.13l4.89.04c4.04.02 3.94 1.21 3.24 2.93l-.13.32-3.5-.02c.29-.72.32-1.02-1.29-1.04l-3.89-.02a1.6 1.6 0 00-1.63.76c-.35.85.07.88 3.83.89 5.45.03 6.59.32 5.43 3.19-1.08 2.66-2.3 3.09-6.95 3.06l-4.25-.03c-3.19-.02-4.25-.55-3.39-2.69z" transform="translate(-1015 -2439.66)"/><path id="Fill_16" data-name="Fill 16" class="cls-1" d="M1092.99 2442.08a7.09 7.09 0 00-3.12 1.01l-12.19 9.16a4.7 4.7 0 01-1.93.75H1015l62.76 2.44a9.083 9.083 0 003.55-.78c3.62-1.53 11.35-9.26 14.33-9.62h49.33z" transform="translate(-1015 -2439.66)"/><path id="Fill_19" data-name="Fill 19" class="cls-1" d="M1134.9 2447.89h-4.6a1.421 1.421 0 00-1.53.94l-1.13 3.2c-.22.63.07.94.87.94l4.6.01a1.432 1.432 0 001.53-.94l1.13-3.2c.22-.63-.07-.95-.87-.95zm-.4 1.13l-.99 2.83a.262.262 0 01-.27.19l-4.2-.01c-.13 0-.18-.06-.13-.19l.99-2.82a.267.267 0 01.27-.19h4.2c.13 0 .18.07.13.19zm-7.8-1.14l-5.8-.01-.15.44-.18.5-.33.94-1.13 3.21h1.2l4.6.01a1.443 1.443 0 001.53-.94l.47-1.32a.391.391 0 00-.14-.47.927.927 0 00.47-.47l.33-.95c.22-.63-.07-.94-.87-.94zm-1.06 3.01l-.33.95a.262.262 0 01-.27.18h-4.4l.47-1.32 4.4.01c.13 0 .17.06.13.18zm.66-1.88l-.2.57a.25.25 0 01-.26.18h-4.4l.33-.95 4.4.01c.13 0 .18.07.13.19zm-29.39 2.78l.99-2.82a.259.259 0 01.27-.19l5.6.01.33-.95h-5.8a1.432 1.432 0 00-1.53.94l-1.13 3.2c-.22.63.07.94.87.94l5.8.01.33-.94-5.6-.01c-.13 0-.18-.06-.13-.19zm11.49-3.94a1.3 1.3 0 00-1.03.38l-4.26 4.7h1.4l.83-.94 3.2.01.17.94h1.44l-.98-4.71a.652.652 0 00-.77-.38zm-2.23 3.2l1.83-2.07.37 2.08zm12.1-3.18l-5.8-.01-.12.35-.21.59-.33.94-1.12 3.21h1.2l.79-2.26h2.67l.99 2.26h1.38l-.98-2.26h.54a1.432 1.432 0 001.53-.94l.33-.94c.23-.63-.07-.94-.87-.94zm-.39 1.13l-.2.56a.252.252 0 01-.27.19h-4.4l.33-.95 4.4.01c.14 0 .18.06.14.19zm25.22-1.1l-1.46 4.15-2.27-3.77a.977.977 0 00-.87-.38 1.432 1.432 0 00-1.53.94l-1.46 4.14h1.2l1.46-4.14 2.27 3.77a1 1 0 00.87.38 1.432 1.432 0 001.53-.94l1.46-4.14z" transform="translate(-1015 -2439.66)"/></svg>