<svg id="_-e-bauer" data-name="-e-bauer" xmlns="http://www.w3.org/2000/svg" width="98.844" height="11.812" viewBox="0 0 98.844 11.812"><defs><style>.cls-1{fill:#fff;fill-rule:evenodd}</style></defs><path id="Fill_1" data-name="Fill 1" class="cls-1" d="M496.88 659.979l-4.867 10.15a2.967 2.967 0 01-2.849 1.639h-11.812c-1.354 0-1.77-1.035-1.258-2.125l4.623-9.664h4.1l-4.263 8.882a.238.238 0 00.234.382h7.07a.646.646 0 00.7-.428l4.241-8.836h4.084z" transform="translate(-435.75 -659.969)"/><path id="Fill_3" data-name="Fill 3" class="cls-1" d="M513.482 659.978h-11.345a2.828 2.828 0 00-2.858 1.852l-3.679 7.65c-.638 1.3-.016 2.287 1.364 2.287h11.506a2.966 2.966 0 002.9-1.736l.359-.716h-11.565c-.243 0-.333-.162-.224-.392l.671-1.4a.658.658 0 01.676-.429h9.484a2.811 2.811 0 002.759-1.545l1.479-3.078a2.655 2.655 0 00.292-1.143c0-.868-.722-1.347-1.819-1.347m-2.447 2.8l-.73 1.514a.625.625 0 01-.649.375h-7.667l.9-1.874a.641.641 0 01.668-.4h7.218a.253.253 0 01.257.383" transform="translate(-435.75 -659.969)"/><path id="Fill_6" data-name="Fill 6" class="cls-1" d="M530.255 662.775l-.76 1.574a.635.635 0 01-.668.386h-7.833l.931-1.929a.665.665 0 01.706-.415H530a.254.254 0 01.257.384zm4.038-.307a2.666 2.666 0 00.291-1.143c0-.868-.722-1.347-1.818-1.347h-11.558a2.829 2.829 0 00-2.858 1.852l-4.786 9.937h4.051l2-4.17a.659.659 0 01.678-.434h5.039a.561.561 0 01.611.4l1.637 4.2h3.9l-1.864-4.674.291-.022a3.37 3.37 0 003.07-1.868z" transform="translate(-435.75 -659.969)"/><path id="Fill_9" data-name="Fill 9" class="cls-1" d="M474.757 659.978h-11.72a2.708 2.708 0 00-2.7 1.689l-.372.766h11.806a.256.256 0 01.266.4l-.615 1.282a.641.641 0 01-.67.421h-10.076a2.687 2.687 0 00-2.5 1.544l-1.662 3.455c-.589 1.247-.011 2.234 1.332 2.234h11.923a2.974 2.974 0 002.844-1.641l3.672-7.66a2.685 2.685 0 00.291-1.144c0-.868-.722-1.344-1.819-1.344zm-5.649 8.947a.633.633 0 01-.653.394H461a.239.239 0 01-.208-.387l.783-1.641a.637.637 0 01.67-.408h7.842z" transform="translate(-435.75 -659.969)"/><path id="Fill_12" data-name="Fill 12" class="cls-1" d="M455.457 659.979h-12.182a2.765 2.765 0 00-2.631 1.566l-4.9 10.223h14.849a2.856 2.856 0 002.825-1.606l1.01-2.1a2.39 2.39 0 00.291-1.007 1.4 1.4 0 00-1.315-1.345 6.482 6.482 0 00.849-.138 2.753 2.753 0 001.994-1.572l.737-1.529a2.666 2.666 0 00.291-1.143c0-.867-.722-1.346-1.818-1.346zm-5.539 8.948a.629.629 0 01-.666.392H441.4a.24.24 0 01-.23-.379l.8-1.666a.662.662 0 01.661-.4h8.27zm2.98-6.193l-.652 1.361a.631.631 0 01-.668.4H443.3l.843-1.763a.654.654 0 01.659-.4h7.832a.256.256 0 01.262.4z" transform="translate(-435.75 -659.969)"/></svg>