<svg data-name="icon/1" xmlns="http://www.w3.org/2000/svg" width="27" height="30.125" viewBox="0 0 27 30.125"><path d="M22.85 25.734a.768.768 0 00-.72-.811h-4.8a.767.767 0 00-.71.811v2.531a.768.768 0 00.71.812h4.8a.769.769 0 00.72-.812v-2.531zm4.15-1.15v4.845a.689.689 0 01-.69.686H.69a.689.689 0 01-.69-.686v-4.845a4.8 4.8 0 013.06-4.481l6.06-2.4a.7.7 0 01.54.012.655.655 0 01.37.393l1.53 4.171.3-.859-.48-1.162a.7.7 0 01.06-.643.709.709 0 01.58-.3h2.96a.709.709 0 01.58.3.7.7 0 01.06.643l-.48 1.162.3.859 1.53-4.171a.655.655 0 01.37-.393.7.7 0 01.54-.012l6.06 2.4A4.8 4.8 0 0127 24.584zm-6.38-13.287c-.46 1.806-1.52 2.2-2.1 2.284a11.934 11.934 0 01-1.89 2.947 3.7 3.7 0 01-1.2.746 5.091 5.091 0 01-3.86 0 3.7 3.7 0 01-1.2-.746 11.934 11.934 0 01-1.89-2.947c-.58-.08-1.64-.478-2.1-2.284a2.927 2.927 0 01.18-2.339 1.807 1.807 0 01.55-.556c0-.193.01-.434.03-.709a3.428 3.428 0 01-.23-3.156A2.742 2.742 0 019.48 2.49 4.555 4.555 0 0110.86.937 5.19 5.19 0 0113.9 0a6.734 6.734 0 014.07 1.467c2.05 1.555 1.88 5 1.83 5.632a10.046 10.046 0 01.09 1.3 1.83 1.83 0 01.55.556 2.971 2.971 0 01.18 2.34z" fill="#182353" fill-rule="evenodd"/></svg>