<svg id="x-curv" xmlns="http://www.w3.org/2000/svg" width="87.844" height="33.15" viewBox="0 0 87.844 33.15"><defs><style>.cls-1{fill:#fefefe;fill-rule:evenodd}</style></defs><path id="Fill_1" data-name="Fill 1" class="cls-1" d="M357.455 2443.23c1.544 0 5.208.37 5.178 2.81v1.7h-4.5c.462-2.06-.6-1.9-1.333-1.9-2.359 0-2.931 4.96-2.931 5.37a1.567 1.567 0 001.305 1.79c1.423 0 1.752-1.47 2.017-2.23h4.779c-.451 3.47-5.252 4.83-7.45 4.83-3.256 0-5.208-1.34-5.208-4.39 0-5.17 3.582-7.98 8.14-7.98" transform="translate(-316 -2430.69)"/><path id="Fill_3" data-name="Fill 3" class="cls-1" d="M376.942 2443.63l-2.406 11.83h-4.06l.395-1.81-.055-.04a5.413 5.413 0 01-4.333 2.13 2.981 2.981 0 01-2.315-.84 2.828 2.828 0 01-.77-2 18.373 18.373 0 01.445-2.94l1.316-6.33h4.313l-1.187 5.78q-.257 1.26-.292 1.47a2.864 2.864 0 00-.037.51v.03a.794.794 0 00.825.96 2.1 2.1 0 001.692-.93 6.657 6.657 0 001.076-2.69l1.047-5.13h4.346z" transform="translate(-316 -2430.69)"/><path id="Fill_5" data-name="Fill 5" class="cls-1" d="M388.049 2443.72l-1.592 3.5a3.825 3.825 0 00-.888-.12 2.48 2.48 0 00-2.014.94 6.9 6.9 0 00-1.2 2.99l-.891 4.43h-4.323l2.4-11.83h4.036l-.5 2.33.046.05a7.784 7.784 0 011.765-2.11 2.909 2.909 0 011.675-.53 3.6 3.6 0 011.486.35" transform="translate(-316 -2430.69)"/><path id="Fill_7" data-name="Fill 7" class="cls-1" d="M400.979 2443.63l-7.025 11.83h-3.827l-2.163-11.83h4.082l.649 7.49h.041l3.73-7.49h4.513z" transform="translate(-316 -2430.69)"/><path id="Fill_9" data-name="Fill 9" class="cls-1" d="M402.374 2444.88h.244a.453.453 0 00.243-.05.178.178 0 00.063-.14.163.163 0 00-.031-.1.2.2 0 00-.087-.07.825.825 0 00-.2-.02h-.229v.38zm-.2.71v-1.26h.426a.839.839 0 01.318.04.266.266 0 01.158.12.324.324 0 01.061.18.348.348 0 01-.1.24.4.4 0 01-.264.12.311.311 0 01.11.06 1.52 1.52 0 01.184.25l.153.25h-.24l-.115-.2a.926.926 0 00-.212-.29.255.255 0 00-.162-.04h-.117v.53h-.2zm.514-1.62a1.042 1.042 0 00-.482.12.98.98 0 00-.363.36 1 1 0 00-.133.49.934.934 0 00.133.48.893.893 0 00.358.37 1.04 1.04 0 00.97 0 .912.912 0 00.361-.37.939.939 0 00.128-.48 1 1 0 00-.131-.49.95.95 0 00-.365-.36 1.028 1.028 0 00-.476-.12zm.171-.2a.646.646 0 01.4.15 1.118 1.118 0 01.438.43 1.233 1.233 0 01.155.59 1.165 1.165 0 01-.153.58 1.142 1.142 0 01-.432.44 1.208 1.208 0 01-1.166 0 1.127 1.127 0 01-.429-.44 1.15 1.15 0 01-.158-.58 1.237 1.237 0 01.158-.59 1.129 1.129 0 01.437-.43 1.967 1.967 0 01.749-.15z" transform="translate(-316 -2430.69)"/><path id="Fill_11" data-name="Fill 11" class="cls-1" d="M338.973 2442.77c-7.127 3.87-13.541 5.66-14.317 4.01s4.365-6.14 11.492-10.01 13.538-5.67 14.318-4.01-4.364 6.13-11.493 10.01M352.9 2432c-.993-2.21-5.02-1.3-10.039.4l-1.1-1.06a57.8 57.8 0 00-8.361 3.41c-11.432 5.7-19.086 13.8-17.093 18.08s12.879 3.15 24.31-2.55a49.108 49.108 0 005.157-3.28l-2.929-2.98c7.552-4.56 11.184-9.51 10.05-12.02" transform="translate(-316 -2430.69)"/><path id="Fill_14" data-name="Fill 14" class="cls-1" d="M353.116 2460.79l-.477.46a1.5 1.5 0 00-1.1-.52 1.2 1.2 0 00-1.221 1.22 1.292 1.292 0 00.158.64 1.181 1.181 0 00.442.44 1.337 1.337 0 00.632.15 1.228 1.228 0 00.545-.11 1.969 1.969 0 00.541-.4l.461.48a2.489 2.489 0 01-.752.54 2.036 2.036 0 01-.806.15 1.883 1.883 0 01-1.371-.53 1.894 1.894 0 01.406-2.99 2.058 2.058 0 01.976-.25 2.118 2.118 0 01.853.19 1.975 1.975 0 01.71.53" transform="translate(-316 -2430.69)"/><path id="Fill_17" data-name="Fill 17" class="cls-1" d="M355.9 2460.74a1.1 1.1 0 00-.838.35 1.193 1.193 0 00-.337.88 1.154 1.154 0 00.426.94 1.173 1.173 0 00.763.27 1.132 1.132 0 00.827-.35 1.206 1.206 0 00.343-.87 1.173 1.173 0 00-.346-.86 1.115 1.115 0 00-.838-.36m.008-.67a1.769 1.769 0 011.309.55 1.856 1.856 0 01.549 1.35 1.833 1.833 0 01-.543 1.33 1.876 1.876 0 01-2.654-.02 1.9 1.9 0 01.4-2.96 1.924 1.924 0 01.938-.25" transform="translate(-316 -2430.69)"/><path id="Fill_19" data-name="Fill 19" class="cls-1" d="M359.255 2460.16h.666l.831 2.5.841-2.5h.664l.6 3.59h-.657l-.383-2.27-.762 2.27h-.6l-.753-2.27-.395 2.27h-.664z" transform="translate(-316 -2430.69)"/><path id="Fill_21" data-name="Fill 21" class="cls-1" d="M364.582 2461.57h.218a1.328 1.328 0 00.358-.04.391.391 0 00.156-.12.368.368 0 00.058-.21.316.316 0 00-.16-.3.892.892 0 00-.435-.07h-.193v.74zm-.683-1.41h.725a2.438 2.438 0 01.848.11.847.847 0 01.409.35 1.089 1.089 0 01.151.58.991.991 0 01-.2.63 1.069 1.069 0 01-.53.35 3.692 3.692 0 01-.721.05v1.52h-.681v-3.59z" transform="translate(-316 -2430.69)"/><path id="Fill_23" data-name="Fill 23" class="cls-1" d="M368.886 2460.74a1.1 1.1 0 00-.838.35 1.2 1.2 0 00-.34.88 1.153 1.153 0 00.428.94 1.181 1.181 0 00.764.27 1.132 1.132 0 00.827-.35 1.205 1.205 0 00.342-.87 1.172 1.172 0 00-.345-.86 1.115 1.115 0 00-.838-.36m.009-.67a1.77 1.77 0 011.308.55 1.924 1.924 0 01.007 2.68 1.877 1.877 0 01-2.655-.02 1.9 1.9 0 01.4-2.96 1.945 1.945 0 01.942-.25" transform="translate(-316 -2430.69)"/><path id="Fill_25" data-name="Fill 25" class="cls-1" d="M373.778 2460.65l-.508.45a.7.7 0 00-.541-.37.324.324 0 00-.221.07.2.2 0 00-.084.16.273.273 0 00.061.17 4.308 4.308 0 00.5.46c.261.22.419.36.475.41a1.564 1.564 0 01.3.4 1.068 1.068 0 01.084.42.949.949 0 01-.3.73 1.081 1.081 0 01-.8.29 1.141 1.141 0 01-.666-.19 1.424 1.424 0 01-.487-.59l.573-.34a.736.736 0 00.6.47.429.429 0 00.3-.1.317.317 0 00.118-.24.391.391 0 00-.089-.24 2.3 2.3 0 00-.4-.37 4.5 4.5 0 01-.757-.74.963.963 0 01-.174-.52.844.844 0 01.288-.64.971.971 0 01.7-.27 1.033 1.033 0 01.513.13 1.814 1.814 0 01.526.45" transform="translate(-316 -2430.69)"/><path id="Fill_28" data-name="Fill 28" class="cls-1" d="M374.943 2463.75h.677v-3.59h-.677v3.59z" transform="translate(-316 -2430.69)"/><path id="Fill_30" data-name="Fill 30" class="cls-1" d="M376.536 2460.16h1.984v.67h-.656v2.92h-.692v-2.92h-.636v-.67z" transform="translate(-316 -2430.69)"/><path id="Fill_31" data-name="Fill 31" class="cls-1" d="M379.488 2460.16h1.961v.67h-1.283v.65h1.283v.65h-1.283v.95h1.283v.67h-1.961v-3.59z" transform="translate(-316 -2430.69)"/></svg>