<svg id="_-e-zaryad" data-name="-e-zaryad" xmlns="http://www.w3.org/2000/svg" width="108.531" height="22.594" viewBox="0 0 108.531 22.594"><defs><style>.cls-1{fill:#fff;fill-rule:evenodd}</style></defs><path id="Fill_1" data-name="Fill 1" class="cls-1" d="M864.913 658.656c3.231.029 4.709 2.137 4.048 4.432l-2.31 6.064c-.82 2.2-3.222 3.31-5.791 3.288l-11.262-.069 4.721-12.752h-.368c-2.506.031-3.781.512-4.573 2.615l-4.99 13.25 18.27.1c3.433.031 5.852-1.44 7.042-4.607l2.613-6.932c1.643-4.358-.891-8.48-6.3-8.513l-2.051-.012-8.244 3.09z" transform="translate(-844.375 -653)"/><path id="Fill_4" data-name="Fill 4" class="cls-1" d="M856.786 653l-.927 2.464 5.228.032-5.928 2.007-.616 1.616-.924-1.07-3.786 1.208 2.6-2.35-1.361-1.473 2.92.018z" transform="translate(-844.375 -653)"/><path id="Fill_6" data-name="Fill 6" class="cls-1" d="M866.024 665.706a3.117 3.117 0 01.105 2.135 5.3 5.3 0 01-4.881 3.549L851 671.328l.171-.457c.738-1.968 1.178-2.535 3.348-2.522l6.3.038c.95.006 1.427-1.319.353-1.326l-7.241-.044h-.511l.183-.395c.778-2.024 2.087-2.585 4.211-2.572l4.668.028c1.152.007 1.528-1.319.429-1.326l-5.451-.033c-1.833-.011-2.974.41-3.715 1.247l1.62-4.337 9.395.063a3.172 3.172 0 012.81 1.3 2.83 2.83 0 01.084 2.657 4.635 4.635 0 01-.752 1.232 5.108 5.108 0 01-.883.824" transform="translate(-844.375 -653)"/><path id="Fill_8" data-name="Fill 8" class="cls-1" d="M902.119 664.051c.244-.713.614-1.356-.37-1.356h-5.963a6.111 6.111 0 00-3.96 1.257l1.621-4.428h9.761a3.354 3.354 0 012.945 1.327 2.978 2.978 0 01.069 2.716l-2.9 7.994h-9.3c-7.318 0-4.679-7.5 2.269-7.511h5.821zm9.532-1.355h4.766c1.687 0 1.013 1.359-.068 1.359h-4.659a5.493 5.493 0 00-5.344 3.591l-1.432 3.918h3.875l1.13-3.1a1.778 1.778 0 011.9-1.339h4.4c2.326 0 4.776-.99 5.283-3.677.519-2.747-2.071-3.916-4.42-3.916l-7.763-.007-1.648 4.508a5.7 5.7 0 013.984-1.335zm11.055.821c-.406 2.831 2.262 3.6 4.664 3.6h3.872l-1.637 4.445h4l1.6-4.395c.891-2.275-.692-3.127-3.086-3.127h-4.286c-1.135 0-1.192-1.344.561-1.344h4.525c1.917 0 2.893.476 3.439 1.322l1.638-4.5h-9.688c-2.433 0-5.192 1.075-5.61 3.991zm17.537 4.966h4.984c1.286 0 1.792-.31 2.117-1.2l1.273-3.513c.215-.593.186-1.07-.649-1.07h-5.611a6.57 6.57 0 00-4.43 1.4l1.664-4.562h9.987c2.454.007 3.99 1.643 3.05 4.043l-1.793 4.9c-.845 2.315-3.03 3.084-5.043 3.084H935.2l1.612-4.441a5.275 5.275 0 015.058-3.081zm-16.915 0h5.96l-.558 1.417a2.627 2.627 0 01-2.869 1.667h-6.173l.506-1.373c.459-1.246 1.135-1.707 3.134-1.707zm-34.647-2.783a3.193 3.193 0 01.122 2.19 5.437 5.437 0 01-4.988 3.675H873.3l.172-.47c.745-2.025 1.194-2.61 3.421-2.61h6.47c.975 0 1.456-1.363.355-1.363h-7.958l.185-.408c.786-2.081 2.126-2.666 4.306-2.666h4.792c1.183 0 1.56-1.363.432-1.363h-5.595c-1.882 0-3.05.439-3.806 1.3l1.636-4.463 9.644.007a3.256 3.256 0 012.893 1.32 2.906 2.906 0 01.1 2.727 4.78 4.78 0 01-.763 1.269 5.2 5.2 0 01-.9.852zm6.378 2.788h5.441l.5-1.361h-5.39c-1.659 0-1.8 1.359-.551 1.359z" transform="translate(-844.375 -653)"/></svg>