<svg id="_-e-icon_5" data-name="-e-icon/5" xmlns="http://www.w3.org/2000/svg" width="34" height="34" viewBox="0 0 34 34"><defs><style>.cls-1,.cls-2{fill:#182353}.cls-1{fill-rule:evenodd}</style></defs><g id="mask"><path id="Fill_1" data-name="Fill 1" class="cls-1" d="M1114.22 857.953a2.343 2.343 0 01-2.42 1.794 2 2 0 01-2.2-1.872.5.5 0 01.48-.511.491.491 0 01.51.479 1.029 1.029 0 001.21.914 1.348 1.348 0 001.45-.992.494.494 0 11.97.188m12.42 1.444h-2.34l-6.87-4.959a4.3 4.3 0 01-1.74-2.946l-.61-6.047a.492.492 0 00-.49-.445h-7.21a.5.5 0 00-.38.175.526.526 0 00-.11.4 91.611 91.611 0 011.26 9.692 4.785 4.785 0 01-.86 1.861c-.77 1.24-1.73 2.781-1.07 4.555a4.234 4.234 0 004.34 2.769 9.514 9.514 0 002.6-.4 7.517 7.517 0 012.11-.287 16.588 16.588 0 014.01.652 17.558 17.558 0 002.78.544q.465.037 1.02.038a30.36 30.36 0 003.92-.316 2.655 2.655 0 00-.36-5.287" transform="translate(-1099 -839)"/><path id="Rectangle" class="cls-2" d="M0 0h6v3H0z"/><path id="Rectangle_Copy_13" data-name="Rectangle Copy 13" class="cls-1" d="M1102 839v6h-3v-6h3z" transform="translate(-1099 -839)"/><path id="Rectangle-2" data-name="Rectangle" class="cls-2" d="M0 31h6v3H0z"/><path id="Rectangle_Copy_13-2" data-name="Rectangle Copy 13" class="cls-1" d="M1102 873v-6h-3v6h3z" transform="translate(-1099 -839)"/><path id="Rectangle_Copy_10" data-name="Rectangle Copy 10" class="cls-2" d="M28 0h6v3h-6z"/><path id="Rectangle_Copy_10-2" data-name="Rectangle Copy 10" class="cls-1" d="M1133 839v6h-3v-6h3z" transform="translate(-1099 -839)"/><path id="Rectangle_Copy_10-3" data-name="Rectangle Copy 10" class="cls-2" d="M28 31h6v3h-6z"/><path id="Rectangle_Copy_10-4" data-name="Rectangle Copy 10" class="cls-1" d="M1133 873v-6h-3v6h3z" transform="translate(-1099 -839)"/></g></svg>