<svg data-name="icon/3" xmlns="http://www.w3.org/2000/svg" width="24.88" height="32" viewBox="0 0 24.88 32"><path class="cls-1" fill="#182353" d="M11.31 18.938H19v2.312h-7.69z"/><path fill="#182353" data-name="Rectangle" class="cls-2" d="M7.98 28.208h14.69V32H7.98v-3.792z"/><path class="cls-2" fill="#182353" d="M21.74 3.72a3.106 3.106 0 00-1.26.264v-.853a5.759 5.759 0 00-10.65 0v.4a3.132 3.132 0 00-4.39 2.868v8.272l-.02-.021a3.132 3.132 0 00-4.57 4.284l4.69 5.03a4.183 4.183 0 001.52 2.373h16.19a4.128 4.128 0 001.62-3.273V6.851a3.138 3.138 0 00-3.13-3.131zm-.88 19.41H9.45v-6.068h11.41v6.068z"/></svg>