<svg id="duraflex" xmlns="http://www.w3.org/2000/svg" width="113.219" height="20" viewBox="0 0 113.219 20">
  <metadata><?xpacket begin="﻿" id="W5M0MpCehiHzreSzNTczkc9d"?>
<x:xmpmeta xmlns:x="adobe:ns:meta/" x:xmptk="Adobe XMP Core 5.6-c142 79.160924, 2017/07/13-01:06:39        ">
   <rdf:RDF xmlns:rdf="http://www.w3.org/1999/02/22-rdf-syntax-ns#">
      <rdf:Description rdf:about=""/>
   </rdf:RDF>
</x:xmpmeta>
                                                                                                    
                                                                                                    
                                                                                                    
                                                                                                    
                                                                                                    
                                                                                                    
                                                                                                    
                                                                                                    
                                                                                                    
                                                                                                    
                                                                                                    
                                                                                                    
                                                                                                    
                                                                                                    
                                                                                                    
                                                                                                    
                                                                                                    
                                                                                                    
                                                                                                    
                                                                                                    
                           
<?xpacket end="w"?></metadata>
<defs>
    <style>
      .cls-1 {
        fill: #fefefe;
        fill-rule: evenodd;
      }
    </style>
  </defs>
  <path id="Fill_1" data-name="Fill 1" class="cls-1" d="M844.652,2452.23h8.771c0.2,0,.514-0.02.71-0.04a6.127,6.127,0,0,0,2.126-.69,3.607,3.607,0,0,0,1.395-2.01l0.412-1.49c0.119-.43.2-0.74,0.2-0.74,0.049-.19.111-0.5,0.14-0.69a7.921,7.921,0,0,0,.035-2.48,1.51,1.51,0,0,0-1.363-1.07c-0.435-.05-0.827-0.09-1.177-0.11s-0.555-.04-0.555-0.04c-0.2,0-.514-0.01-0.708-0.01h-7.7a0.479,0.479,0,0,0-.438.35l-2.113,8.68a0.262,0.262,0,0,0,.27.34m3.206-2.62,1-4.12a0.479,0.479,0,0,1,.439-0.35h4.538c0.195,0,.512.01,0.706,0.03a1.671,1.671,0,0,1,.483.11,0.84,0.84,0,0,1,.41.42,1.513,1.513,0,0,1,.065.74,8.98,8.98,0,0,1-.2,1.05,8.606,8.606,0,0,1-.4,1.29,2.157,2.157,0,0,1-.5.75,1.548,1.548,0,0,1-.711.34,4.642,4.642,0,0,1-.692.07c-0.2.01-.515,0.01-0.71,0.01h-4.167a0.263,0.263,0,0,1-.271-0.34" transform="translate(-843 -2437.75)"/>
  <path id="Fill_3" data-name="Fill 3" class="cls-1" d="M870.452,2450.91a7.474,7.474,0,0,0,.879-1.81c0.063-.19.152-0.5,0.2-0.69l1.271-5.22a0.263,0.263,0,0,0-.271-0.34h-2.213a0.471,0.471,0,0,0-.438.34l-1.041,4.28c-0.048.19-.125,0.5-0.174,0.69,0,0-.111.43-0.2,0.71a1.422,1.422,0,0,1-.214.43,4.244,4.244,0,0,1-.521.5s0,0-.175.06a2.483,2.483,0,0,1-.6.13c-0.229.02-.489,0.03-0.785,0.03h-2.321a6.774,6.774,0,0,1-.9-0.07,1.208,1.208,0,0,1-.548-0.18,0.556,0.556,0,0,1-.242-0.38,1.86,1.86,0,0,1,.006-0.64c0.039-.26.124-0.63,0.124-0.63,0.043-.19.116-0.5,0.163-0.69l1.03-4.24a0.262,0.262,0,0,0-.27-0.34h-2.213a0.471,0.471,0,0,0-.439.34l-1.237,5.08c-0.046.19-.114,0.5-0.151,0.7a8.142,8.142,0,0,0-.152,1.25,2.064,2.064,0,0,0,.268,1.06,1.643,1.643,0,0,0,.751.64,4.605,4.605,0,0,0,1.222.31,16.071,16.071,0,0,0,1.688.1h2.144c0.75,0,1.418-.01,2-0.04a8.568,8.568,0,0,0,1.189-.16,3.4,3.4,0,0,0,.684-0.23,5.046,5.046,0,0,0,1.486-.99" transform="translate(-843 -2437.75)"/>
  <path id="Fill_5" data-name="Fill 5" class="cls-1" d="M872.637,2452.23h2.213a0.471,0.471,0,0,0,.439-0.34l0.421-1.73a0.48,0.48,0,0,1,.439-0.35h4.1c0.195,0,.512.02,0.7,0.04a0.605,0.605,0,0,1,.661.8c-0.024.19-.081,0.5-0.128,0.69l-0.134.55a0.264,0.264,0,0,0,.272.34h2.213a0.472,0.472,0,0,0,.439-0.34l0.241-1c0.048-.19.113-0.5,0.148-0.69a2.481,2.481,0,0,0,.029-0.65,0.842,0.842,0,0,0-.284-0.52,1.115,1.115,0,0,0-.561-0.25c-0.227-.04-0.378-0.07-0.378-0.07-0.188-.04-0.186-0.12,0-0.18,0,0,.312-0.09.592-0.18a2.144,2.144,0,0,0,.75-0.42,2.544,2.544,0,0,0,.589-0.78,5.958,5.958,0,0,0,.461-1.33,5.014,5.014,0,0,0,.171-1.38,1.525,1.525,0,0,0-.319-0.92,1.712,1.712,0,0,0-.859-0.51,6.187,6.187,0,0,0-1.1-.14c-0.195-.01-0.513-0.02-0.708-0.02h-8.13a0.468,0.468,0,0,0-.438.34l-2.117,8.7a0.262,0.262,0,0,0,.27.34m3.8-5.04,0.418-1.72a0.47,0.47,0,0,1,.438-0.34h4.563s0.217,0.01.423,0.03a0.905,0.905,0,0,1,.462.14,0.492,0.492,0,0,1,.182.34,1.836,1.836,0,0,1-.067.6,6.137,6.137,0,0,1-.194.65,0.925,0.925,0,0,1-.282.4,1.112,1.112,0,0,1-.493.2,4.417,4.417,0,0,1-.819.06,0.979,0.979,0,0,1-.184-0.01h-0.045c-0.077,0-.3-0.01-0.493-0.01H876.7a0.263,0.263,0,0,1-.271-0.34" transform="translate(-843 -2437.75)"/>
  <path id="Fill_7" data-name="Fill 7" class="cls-1" d="M885.439,2452.23h2.513a0.821,0.821,0,0,0,.579-0.28l0.905-1.14a0.864,0.864,0,0,1,.58-0.28h5.436a0.5,0.5,0,0,1,.449.33l0.294,1.04a0.5,0.5,0,0,0,.45.33h2.484a0.237,0.237,0,0,0,.252-0.32l-2.7-8.73a0.506,0.506,0,0,0-.456-0.33h-3.2a0.875,0.875,0,0,0-.582.28l-7.133,8.82c-0.125.16-.068,0.28,0.127,0.28m5.934-3.92,2.5-3.15c0.125-.16.27-0.14,0.325,0.04l0.922,3.06a0.247,0.247,0,0,1-.256.33H891.5c-0.195,0-.253-0.13-0.128-0.28" transform="translate(-843 -2437.75)"/>
  <path id="Fill_9" data-name="Fill 9" class="cls-1" d="M903.4,2452.23h2.156a0.47,0.47,0,0,0,.438-0.34l0.621-2.55a0.47,0.47,0,0,1,.438-0.34h6.134a0.48,0.48,0,0,0,.439-0.35l0.345-1.42a0.262,0.262,0,0,0-.27-0.34H907.57a0.271,0.271,0,0,1-.271-0.35l0.282-1.15a0.478,0.478,0,0,1,.438-0.35h6.5a0.473,0.473,0,0,0,.44-0.34l0.365-1.51a0.262,0.262,0,0,0-.27-0.34h-9.37a0.469,0.469,0,0,0-.438.34l-2.117,8.7a0.262,0.262,0,0,0,.27.34" transform="translate(-843 -2437.75)"/>
  <path id="Fill_11" data-name="Fill 11" class="cls-1" d="M919.349,2443.19a0.263,0.263,0,0,0-.27-0.34h-2.214a0.47,0.47,0,0,0-.438.34l-2.118,8.7a0.263,0.263,0,0,0,.271.34h8.756a0.471,0.471,0,0,0,.439-0.34l0.4-1.65a0.263,0.263,0,0,0-.271-0.34h-5.834a0.269,0.269,0,0,1-.27-0.35Z" transform="translate(-843 -2437.75)"/>
  <path id="Fill_13" data-name="Fill 13" class="cls-1" d="M928.957,2445.3a0.483,0.483,0,0,1,.438-0.34h8.792c0.195,0,.277-0.13.182-0.29l-0.9-1.53a0.681,0.681,0,0,0-.529-0.29h-9.9a0.472,0.472,0,0,0-.439.34l-2.117,8.7a0.263,0.263,0,0,0,.271.34h9.061a1.023,1.023,0,0,0,.618-0.25l1.683-1.6c0.144-.14.1-0.26-0.092-0.26h-7.891a0.262,0.262,0,0,1-.27-0.34l0.239-.99a0.47,0.47,0,0,1,.439-0.34h6.519a0.478,0.478,0,0,0,.438-0.35l0.285-1.16a0.271,0.271,0,0,0-.272-0.35H929a0.263,0.263,0,0,1-.272-0.34Z" transform="translate(-843 -2437.75)"/>
  <path id="Fill_15" data-name="Fill 15" class="cls-1" d="M947.116,2447.97a0.31,0.31,0,0,1,.051-0.39c1.734-1.61,3.5-3.16,5.329-4.66a0.127,0.127,0,0,0-.04-0.24l-2.652-.96a0.44,0.44,0,0,0-.424.09c-1.455,1.37-2.874,2.78-4.271,4.21a0.19,0.19,0,0,1-.321-0.04c-0.238-.42-0.477-0.85-0.714-1.28q-1.767-3.3-3.461-6.65a0.554,0.554,0,0,0-.466-0.3c-11.6.49-23.157,2.31-34.665,4.34-0.171.03-.171,0.04,0,0.02a269.788,269.788,0,0,1,31.986-1.42,0.621,0.621,0,0,1,.483.3c1.326,2.2,2.666,4.4,4.038,6.58a0.351,0.351,0,0,1-.083.38,0.252,0.252,0,0,1-.056.05c-2.465,2.27-4.883,4.6-7.292,6.93a1.148,1.148,0,0,1-.66.28,271.594,271.594,0,0,1-31.158-2.23c-0.2-.03-0.2-0.02,0,0.02a277.732,277.732,0,0,0,32.615,4.74,0.955,0.955,0,0,0,.653-0.27q2.018-2.055,4.054-4.1a0.517,0.517,0,0,0,.171-0.12q1.87-1.89,3.775-3.74a0.206,0.206,0,0,1,.335.03q1.359,2.25,2.784,4.47a0.337,0.337,0,0,0,.38.11q1.459-.585,2.927-1.17a0.175,0.175,0,0,0,.1-0.28c-1.179-1.54-2.31-3.11-3.414-4.7" transform="translate(-843 -2437.75)"/>
  <path id="Fill_18" data-name="Fill 18" class="cls-1" d="M950.126,2448.05a0.423,0.423,0,0,1,.068-0.55c1.409-1.28,2.843-2.53,4.323-3.73a0.2,0.2,0,0,0-.049-0.37l-0.228-.1a0.678,0.678,0,0,0-.618.07c-1.7,1.32-3.343,2.71-4.957,4.13a0.415,0.415,0,0,0-.068.55c1.078,1.42,2.184,2.82,3.334,4.19a0.573,0.573,0,0,0,.58.13l0.427-.15a0.238,0.238,0,0,0,.14-0.39q-1.524-1.86-2.952-3.78" transform="translate(-843 -2437.75)"/>
  <path id="Fill_20" data-name="Fill 20" class="cls-1" d="M956.158,2444.09a0.443,0.443,0,0,0-.41.09c-1.389,1.08-2.741,2.21-4.066,3.36a0.361,0.361,0,0,0-.068.46c0.81,1.15,1.639,2.27,2.494,3.38a0.308,0.308,0,0,0,.372.12,0.2,0.2,0,0,0,.022-0.32q-1.236-1.575-2.4-3.18a0.344,0.344,0,0,1,.066-0.45c1.284-1.1,2.59-2.17,3.932-3.2,0.131-.09.158-0.21,0.063-0.26" transform="translate(-843 -2437.75)"/>
  <path id="Fill_22" data-name="Fill 22" class="cls-1" d="M848.475,2453.85a0.631,0.631,0,0,0-.35-0.21,1.977,1.977,0,0,0-.593-0.07h-3.606L843,2457.4h1.193l0.238-.99h1.962a0.435,0.435,0,0,1,.381.12,0.482,0.482,0,0,1,.013.36l-0.122.51h1.193l0.165-.69a0.962,0.962,0,0,0,.038-0.4,0.355,0.355,0,0,0-.116-0.22,0.523,0.523,0,0,0-.229-0.1q-0.14-.03-0.294-0.06c0.141-.04.269-0.07,0.383-0.11a0.9,0.9,0,0,0,.306-0.18,0.951,0.951,0,0,0,.239-0.31,2.638,2.638,0,0,0,.188-0.55,2.03,2.03,0,0,0,.069-0.56,0.593,0.593,0,0,0-.131-0.37m-1.168,1.11c-0.025.1-.051,0.19-0.076,0.26a0.372,0.372,0,0,1-.115.16,0.4,0.4,0,0,1-.2.08,1.5,1.5,0,0,1-.334.03h-0.076a0.164,0.164,0,0,0-.075-0.01h-1.774l0.238-.98h1.861c0.127,0,.234.01,0.317,0.01a0.42,0.42,0,0,1,.189.06,0.207,0.207,0,0,1,.074.14,0.709,0.709,0,0,1-.028.25" transform="translate(-843 -2437.75)"/>
  <path id="Fill_25" data-name="Fill 25" class="cls-1" d="M849.336,2453.57l-0.926,3.83h4.326l0.209-.86h-3.159l0.166-.68H852.9l0.184-.76h-2.95l0.162-.67h3.159l0.208-.86h-4.328Z" transform="translate(-843 -2437.75)"/>
  <path id="Fill_27" data-name="Fill 27" class="cls-1" d="M858.583,2453.95a0.69,0.69,0,0,0-.154-0.2,0.574,0.574,0,0,0-.242-0.12,2.43,2.43,0,0,0-.347-0.07c-0.133-.02-0.289-0.02-0.465-0.03h-0.6c-0.42,0-.769.01-1.05,0.02s-0.485.03-.613,0.05a2.077,2.077,0,0,0-.5.11,1.094,1.094,0,0,0-.359.22,1.112,1.112,0,0,0-.25.35,2.479,2.479,0,0,0-.167.49,1.829,1.829,0,0,0-.066.52,0.521,0.521,0,0,0,.118.33,0.59,0.59,0,0,0,.316.19,3.186,3.186,0,0,0,.53.07q0.321,0.03.763,0.03t1.012,0h0.3a1.172,1.172,0,0,1,.226.04,0.226,0.226,0,0,1,.126.1,0.3,0.3,0,0,1,0,.2,0.363,0.363,0,0,1-.1.2,0.469,0.469,0,0,1-.222.11,3.406,3.406,0,0,1-.414.04H855.25c-0.137-.01-0.231-0.01-0.28-0.01a0.476,0.476,0,0,1-.218-0.06,0.172,0.172,0,0,1-.082-0.1,0.229,0.229,0,0,1,0-.12c0.012-.05.022-0.09,0.031-0.13h-1.167c-0.029.11-.055,0.22-0.078,0.32a1.288,1.288,0,0,0-.04.27,0.689,0.689,0,0,0,.035.24,0.572,0.572,0,0,0,.156.21,1.071,1.071,0,0,0,.588.17,10.733,10.733,0,0,0,1.11.05c0.465,0,.85-0.01,1.151-0.03s0.509-.03.615-0.04a2.137,2.137,0,0,0,.485-0.1,1.153,1.153,0,0,0,.367-0.21,1.239,1.239,0,0,0,.267-0.34,2.286,2.286,0,0,0,.18-0.51,1.529,1.529,0,0,0,.05-0.66,0.544,0.544,0,0,0-.257-0.35,1.458,1.458,0,0,0-.549-0.14c-0.234-.02-0.51-0.02-0.831-0.02h-0.941c-0.155-.01-0.321-0.01-0.493-0.02a0.481,0.481,0,0,1-.273-0.07,0.2,0.2,0,0,1-.052-0.22,0.408,0.408,0,0,1,.124-0.23,0.52,0.52,0,0,1,.251-0.09,2.377,2.377,0,0,1,.418-0.03c0.172,0,.384-0.01.639-0.02h0.152c0.176,0,.316,0,0.427.01a0.784,0.784,0,0,1,.254.05,0.165,0.165,0,0,1,.115.11,0.483,0.483,0,0,1,0,.21h1.157c0.027-.11.048-0.21,0.062-0.3a1.376,1.376,0,0,0,.017-0.27,0.583,0.583,0,0,0-.053-0.22" transform="translate(-843 -2437.75)"/>
  <path id="Fill_29" data-name="Fill 29" class="cls-1" d="M859.51,2453.57l-0.926,3.83h1.191l0.927-3.83H859.51Z" transform="translate(-843 -2437.75)"/>
  <path id="Fill_31" data-name="Fill 31" class="cls-1" d="M865.588,2453.57l-0.694,2.87-1.637-2.87h-1.88l-0.927,3.83h1.116l0.695-2.88,1.638,2.88h1.879l0.927-3.83h-1.117Z" transform="translate(-843 -2437.75)"/>
  <path id="Fill_33" data-name="Fill 33" class="cls-1" d="M872.566,2453.67a0.721,0.721,0,0,0-.352-0.08,4.728,4.728,0,0,0-.6-0.06H871a8.867,8.867,0,0,0-.931.04,1.709,1.709,0,0,0-.383.04,3.817,3.817,0,0,0-.373.1,1.136,1.136,0,0,0-.524.37,1.957,1.957,0,0,0-.281.65,0.651,0.651,0,0,0,.132.7,1.221,1.221,0,0,0,.787.21l1.032,0.03h0.89a1.188,1.188,0,0,1,.629.11,0.481,0.481,0,0,1,.069.53,0.853,0.853,0,0,1-.27.48,1.318,1.318,0,0,1-.617.19,7.7,7.7,0,0,1-1.027.05l-0.753-.01a1.608,1.608,0,0,1-.328-0.03c-0.1-.02-0.183-0.04-0.268-0.06a0.293,0.293,0,0,1-.233-0.21,1.289,1.289,0,0,1,.053-0.43l0.018-.08h-0.471a1.287,1.287,0,0,0-.014.86,0.613,0.613,0,0,0,.482.3c0.23,0.03.389,0.05,0.474,0.05a2.243,2.243,0,0,0,.261.01h0.967a7.393,7.393,0,0,0,.838-0.04,2.315,2.315,0,0,0,.661-0.14,1.037,1.037,0,0,0,.466-0.35,1.749,1.749,0,0,0,.248-0.58,0.9,0.9,0,0,0-.05-0.76,0.734,0.734,0,0,0-.541-0.26c-0.15-.02-0.252-0.04-0.3-0.04s-0.136-.01-0.245-0.01h-1.761a0.961,0.961,0,0,1-.54-0.12,0.473,0.473,0,0,1-.076-0.48,1.049,1.049,0,0,1,.137-0.34,0.536,0.536,0,0,1,.287-0.22,2.242,2.242,0,0,1,.623-0.12,3.465,3.465,0,0,0,.413-0.02c0.177-.01.309-0.02,0.394-0.02h0.163c0.174,0,.329.01,0.462,0.01s0.253,0.02.354,0.03a1.377,1.377,0,0,1,.419.1,0.272,0.272,0,0,1,.137.18,0.871,0.871,0,0,1-.035.38h0.471a0.931,0.931,0,0,0-.045-0.75,0.616,0.616,0,0,0-.235-0.21" transform="translate(-843 -2437.75)"/>
  <path id="Fill_35" data-name="Fill 35" class="cls-1" d="M877.745,2453.57l-2.246,1.8-1.362-1.8H873.47l1.7,2.2-0.393,1.63h0.471l0.394-1.63,2.772-2.2h-0.669Z" transform="translate(-843 -2437.75)"/>
  <path id="Fill_37" data-name="Fill 37" class="cls-1" d="M882.541,2453.67a0.715,0.715,0,0,0-.351-0.08,4.728,4.728,0,0,0-.6-0.06h-0.61a8.847,8.847,0,0,0-.93.04,1.711,1.711,0,0,0-.384.04,3.8,3.8,0,0,0-.372.1,1.128,1.128,0,0,0-.523.37,1.917,1.917,0,0,0-.282.65,0.649,0.649,0,0,0,.132.7,1.218,1.218,0,0,0,.786.21l1.034,0.03h0.889a1.191,1.191,0,0,1,.629.11,0.479,0.479,0,0,1,.068.53,0.847,0.847,0,0,1-.27.48,1.309,1.309,0,0,1-.616.19,7.719,7.719,0,0,1-1.028.05l-0.752-.01a1.618,1.618,0,0,1-.329-0.03c-0.095-.02-0.182-0.04-0.267-0.06a0.293,0.293,0,0,1-.233-0.21,1.282,1.282,0,0,1,.052-0.43l0.019-.08H878.13a1.292,1.292,0,0,0-.013.86,0.612,0.612,0,0,0,.481.3c0.23,0.03.389,0.05,0.475,0.05a2.252,2.252,0,0,0,.262.01H880.3a7.375,7.375,0,0,0,.837-0.04,2.315,2.315,0,0,0,.661-0.14,1.035,1.035,0,0,0,.467-0.35,1.791,1.791,0,0,0,.248-0.58,0.9,0.9,0,0,0-.051-0.76,0.731,0.731,0,0,0-.54-0.26c-0.151-.02-0.252-0.04-0.3-0.04s-0.135-.01-0.243-0.01h-1.762a0.959,0.959,0,0,1-.54-0.12,0.468,0.468,0,0,1-.076-0.48,1.027,1.027,0,0,1,.137-0.34,0.533,0.533,0,0,1,.287-0.22,2.226,2.226,0,0,1,.623-0.12,3.465,3.465,0,0,0,.413-0.02c0.177-.01.309-0.02,0.393-0.02h0.164c0.173,0,.328.01,0.462,0.01s0.253,0.02.354,0.03a1.385,1.385,0,0,1,.419.1,0.269,0.269,0,0,1,.137.18,0.875,0.875,0,0,1-.036.38h0.471a0.923,0.923,0,0,0-.045-0.75,0.609,0.609,0,0,0-.235-0.21" transform="translate(-843 -2437.75)"/>
  <path id="Fill_39" data-name="Fill 39" class="cls-1" d="M883.522,2453.57l-0.1.39h1.955l-0.833,3.44h0.471l0.833-3.44h1.966l0.1-.39h-4.391Z" transform="translate(-843 -2437.75)"/>
  <path id="Fill_41" data-name="Fill 41" class="cls-1" d="M888.419,2453.57l-0.927,3.83h3.885l0.094-.38h-3.414l0.338-1.4h3.253l0.092-.39h-3.252l0.306-1.27h3.375l0.1-.39h-3.845Z" transform="translate(-843 -2437.75)"/>
  <path id="Fill_43" data-name="Fill 43" class="cls-1" d="M893.241,2453.57l-0.926,3.83h0.47l0.832-3.44,1.587,3.44h0.379l3.259-3.44-0.834,3.44h0.472l0.926-3.83h-0.755l-3.118,3.29-1.523-3.29h-0.769Z" transform="translate(-843 -2437.75)"/>
</svg>
