<svg xmlns="http://www.w3.org/2000/svg" width="95.906" height="21.812" viewBox="0 0 95.906 21.812">
  <metadata><?xpacket begin="﻿" id="W5M0MpCehiHzreSzNTczkc9d"?>
<x:xmpmeta xmlns:x="adobe:ns:meta/" x:xmptk="Adobe XMP Core 5.6-c142 79.160924, 2017/07/13-01:06:39        ">
   <rdf:RDF xmlns:rdf="http://www.w3.org/1999/02/22-rdf-syntax-ns#">
      <rdf:Description rdf:about=""/>
   </rdf:RDF>
</x:xmpmeta>
                                                                                                    
                                                                                                    
                                                                                                    
                                                                                                    
                                                                                                    
                                                                                                    
                                                                                                    
                                                                                                    
                                                                                                    
                                                                                                    
                                                                                                    
                                                                                                    
                                                                                                    
                                                                                                    
                                                                                                    
                                                                                                    
                                                                                                    
                                                                                                    
                                                                                                    
                                                                                                    
                           
<?xpacket end="w"?></metadata>
<defs>
    <style>
      .cls-1 {
        fill: #fff;
        fill-rule: evenodd;
      }
    </style>
  </defs>
  <path id="Fill_1" data-name="Fill 1" class="cls-1" d="M797.041,659.952h15.082c0.049,1.031.025,2.062,0,3.092-4.052-.024-8.1-0.024-12.157-0.047a11.586,11.586,0,0,0,0,1.581H808.1v2.781c-2.734-.024-5.467-0.024-8.2-0.048,0.048,1.51.048,3.02,0.048,4.507-0.959.024-1.942,0.047-2.9,0V659.952Zm-9.952,3.165c-0.623.91-1.174,1.893-1.8,2.828,1.367,0.1,2.757.024,4.124,0.048-0.575-1.007-1.247-1.966-1.846-3a0.564,0.564,0,0,0-.48.12h0Zm-1.438-3.093c1.1-.024,2.23-0.024,3.333,0,2.566,3.931,5.059,7.886,7.6,11.818-1.1.047-2.23,0.023-3.333,0-0.6-.959-1.247-1.87-1.822-2.829a0.413,0.413,0,0,0-.432-0.144c-2.518.024-5.06-.024-7.578,0.024-0.647.983-1.342,1.942-2.014,2.925h-3.237c0.983-1.631,2.038-3.189,3.045-4.794,1.439-2.35,2.926-4.675,4.437-7h0Zm-21.126,3.02v1.487H773.3a4.671,4.671,0,0,0,1.415-.1c0.024-.432,0-0.887,0-1.318a6.969,6.969,0,0,0-1.223-.073h-8.968ZM761.743,660h12.973a2.948,2.948,0,0,1,2.518,1.079,4,4,0,0,1,.336,2.181,6.017,6.017,0,0,1-.168,1.966c-0.1.264-.312,0.455-0.384,0.719a3,3,0,0,1,.576,1.654v4.219c-0.984,0-1.967.047-2.95,0,0-1.487.072-2.973,0.024-4.483-1.558-.072-3.141-0.024-4.724-0.048h-5.539v4.507c-0.935.024-1.894,0.024-2.829,0,0.1-3.908.1-7.839,0.167-11.794h0Zm-15.922.7a3.458,3.458,0,0,1,2.254-.7c4.125,0.024,8.249.024,12.374,0.048v3c-4.149,0-8.3-.047-12.446-0.024-0.047,1.918,0,3.812-.023,5.73,3.093,0.023,6.186-.025,9.279.023,0.048-.479.024-0.958,0.048-1.438H750.4c-0.024-.935,0-1.845,0-2.781h10.024v7.288c-1.631.071-3.262,0-4.892,0.023h-7.745a2.309,2.309,0,0,1-1.2-.263,3.386,3.386,0,0,1-1.535-1.582,2.605,2.605,0,0,1-.12-1.055v-5.992a3.11,3.11,0,0,1,.887-2.278h0ZM730.4,655.374c1.559-.168,3.093-0.383,4.652-0.527h11.989c-1.079,2.037-2.134,4.075-3.285,6.088-2.254,0-4.508-.048-6.738-0.048a10.957,10.957,0,0,0-6.642,2.157,6.13,6.13,0,0,0-2.422,3.644,3.422,3.422,0,0,0,.408,2.78,3.313,3.313,0,0,0,2.781,1.031c1.823,0.072,3.669.024,5.515,0.048,0.12-.192.216-0.408,0.336-0.6-0.887-.1-1.774-0.024-2.638-0.048a8.123,8.123,0,0,1-2.374-.432,9.374,9.374,0,0,0-2.325-.167,5.651,5.651,0,0,1,.575-0.5c0.528-.072,1.079.024,1.631-0.047,1.007-.145,1.99-0.384,3-0.5,1.007-.024,2.038,0,3.045-0.024,0.048-.168.12-0.336,0.168-0.5h-2.614a8.533,8.533,0,0,1-2.325-.48,8.536,8.536,0,0,0-2.35-.192,2.816,2.816,0,0,1,.719-0.455c0.5-.048.983,0.024,1.487-0.024,0.959-.144,1.918-0.384,2.9-0.5h5.156c-1.775,3.523-3.6,7.023-5.372,10.546-2.206.048-4.412,0.025-6.618,0.025a14.94,14.94,0,0,1-2.062-.073c-1.007-.215-1.99-0.455-3-0.67-0.983-.072-1.99.023-2.973-0.049-0.336-.143-0.647-0.383-0.983-0.551,0.959-.048,1.942,0,2.9-0.024,1.079,0.024,2.134-.288,3.19-0.335h8.2c0.072-.168.168-0.336,0.24-0.5h-8.44a33.652,33.652,0,0,1-4.341-.527h-2.373a2.108,2.108,0,0,1-1.1-.551c1.079-.144,2.182,0,3.262-0.073,0.911-.167,1.8-0.407,2.709-0.551,3.717-.024,7.434,0,11.174,0,0.1-.168.192-0.335,0.312-0.527-4.1-.024-8.2,0-12.3,0-1.079-.144-2.134-0.431-3.213-0.575-0.816-.024-1.607,0-2.422,0-0.216-.216-0.408-0.432-0.624-0.648,0.888-.024,1.751,0,2.638,0,0.935-.095,1.847-0.335,2.782-0.407h4.052a3.815,3.815,0,0,0-.479-0.575h-4.2c-0.815-.12-1.582-0.384-2.4-0.5-0.935-.025-1.87,0-2.8-0.025-0.168-.215-0.312-0.431-0.48-0.647,1.031-.024,2.062,0,3.094,0,0.935-.1,1.846-0.455,2.781-0.527h3.5c-0.024-.168-0.024-0.336-0.048-0.5-1.151-.048-2.3,0-3.453-0.024a11.569,11.569,0,0,1-2.422-.36,18.953,18.953,0,0,0-3.5-.191l0.024,0.119a0.246,0.246,0,0,0-.048-0.119,0.427,0.427,0,0,1,.168-0.048,2.311,2.311,0,0,1,.6-0.48c0.792-.048,1.607.024,2.4-0.024,0.887-.144,1.774-0.384,2.685-0.5,1.2-.025,2.4,0,3.621,0,0.072-.192.12-0.384,0.192-0.576h-3.6c-0.743-.119-1.463-0.431-2.206-0.575-0.935-.024-1.87,0-2.806-0.024a1.451,1.451,0,0,1,.864-0.527c0.767,0,1.51.024,2.278,0,0.815-.12,1.558-0.432,2.373-0.575,1.367-.025,2.71,0,4.077,0,0.168-.168.336-0.336,0.48-0.5-1.271-.024-2.566,0-3.837,0a21.631,21.631,0,0,0-2.782-.431h-2.422a7.133,7.133,0,0,1,.84-0.648c0.863-.048,1.726,0,2.589-0.024,0.864-.143,1.727-0.407,2.59-0.551,1.487-.024,2.95,0,4.436,0a3.247,3.247,0,0,0,1.391-.5c-1.511-.024-3,0.024-4.508-0.024-0.839-.168-1.655-0.432-2.47-0.6-1.031-.072-2.038.048-3.069-0.048,0.288-.168.5-0.432,0.791-0.6,1.007-.047,1.99,0,3-0.024,1.031-.12,2.062-0.311,3.117-0.407,5.131,0,10.287.048,15.418,0.048,0.12-.192.264-0.384,0.384-0.576-4.82-.023-9.616,0-14.435,0-0.912-.143-1.8-0.455-2.71-0.575-1.223-.024-2.446,0-3.669-0.024,0.288-.192.552-0.431,0.815-0.623h3.789a44.632,44.632,0,0,1,5.06-.527h12.037c0.1-.168.192-0.336,0.288-0.528H733.16a26.708,26.708,0,0,1-3.908-.527h-3.429a3.846,3.846,0,0,1,1.654-.6,15.159,15.159,0,0,1,2.926-.216h0Z" transform="translate(-716.25 -654.844)"/>
</svg>
