<svg id="icon_4" data-name="icon/4" xmlns="http://www.w3.org/2000/svg" width="32" height="31.938" viewBox="0 0 32 31.938">
    <metadata><?xpacket begin="﻿" id="W5M0MpCehiHzreSzNTczkc9d"?>
        <x:xmpmeta xmlns:x="adobe:ns:meta/" x:xmptk="Adobe XMP Core 5.6-c142 79.160924, 2017/07/13-01:06:39        ">
            <rdf:RDF xmlns:rdf="http://www.w3.org/1999/02/22-rdf-syntax-ns#">
                <rdf:Description rdf:about=""/>
            </rdf:RDF>
        </x:xmpmeta>


        <?xpacket end="w"?>
    </metadata>

    <path id="mask" class="cls-1" fill="#182353"
    d="M2165.18,680.868h3.62v10.561h-3.62V680.868Zm-15.17,0-6.81-14.85h-6.4l9.79,21.349a8.507,8.507,0,0,1,1.03-.522,15.809,15.809,0,0,1,10.97,0c2.71,1.145,3.11,2.832,3.11,3.735a3.553,3.553,0,0,1-.11.849h1.72V680.868h-13.3Zm9.82,12.792a6.676,6.676,0,0,1-.94.521c-0.09.046-.2,0.091-0.3,0.135a15.824,15.824,0,0,1-10.97,0l-0.3-.135a8.031,8.031,0,0,1-.94-0.521,4.942,4.942,0,0,1-.93-0.792V694.2c0,0.671.33,1.938,2.54,2.873a14.9,14.9,0,0,0,10.24,0c2.21-.935,2.54-2.2,2.54-2.873v-1.333A5.376,5.376,0,0,1,2159.83,693.66Zm-6.72-5.924a10.8,10.8,0,0,0-5.73,1.352,1.924,1.924,0,0,0-1,1.492,1.887,1.887,0,0,0,.94,1.449,12.684,12.684,0,0,0,11.57,0,2.754,2.754,0,0,0,.64-0.6,1.468,1.468,0,0,0,.3-0.849C2159.83,689.01,2156.82,687.736,2153.11,687.736Z"
    transform="translate(-2136.81 -666.031)"/>
</svg>
