<svg id="_-e-ccm" data-name="-e-ccm" xmlns="http://www.w3.org/2000/svg" width="80.125" height="11.375" viewBox="0 0 80.125 11.375">
  <metadata><?xpacket begin="﻿" id="W5M0MpCehiHzreSzNTczkc9d"?>
<x:xmpmeta xmlns:x="adobe:ns:meta/" x:xmptk="Adobe XMP Core 5.6-c142 79.160924, 2017/07/13-01:06:39        ">
   <rdf:RDF xmlns:rdf="http://www.w3.org/1999/02/22-rdf-syntax-ns#">
      <rdf:Description rdf:about=""/>
   </rdf:RDF>
</x:xmpmeta>
                                                                                                    
                                                                                                    
                                                                                                    
                                                                                                    
                                                                                                    
                                                                                                    
                                                                                                    
                                                                                                    
                                                                                                    
                                                                                                    
                                                                                                    
                                                                                                    
                                                                                                    
                                                                                                    
                                                                                                    
                                                                                                    
                                                                                                    
                                                                                                    
                                                                                                    
                                                                                                    
                           
<?xpacket end="w"?></metadata>
<defs>
    <style>
      .cls-1 {
        fill: #fff;
        fill-rule: evenodd;
      }
    </style>
  </defs>
  <path id="Fill_1" data-name="Fill 1" class="cls-1" d="M344.312,663.574l2.184-3.517-25.091-.01,3.268,1.74L320,669.2l2.451,2.216h13.722a8.51,8.51,0,0,0,2.727-.652,4.257,4.257,0,0,0,1.757-1.423l1.172-1.807h-6.361l-0.976,1.557h-7.138l4.233-6.721h7.1l-0.744,1.2h6.37Z" transform="translate(-320 -660.031)"/>
  <path id="Fill_4" data-name="Fill 4" class="cls-1" d="M371.059,663.574l2.184-3.517-25.09-.01,3.267,1.74-4.672,7.414,2.45,2.216h13.723a8.51,8.51,0,0,0,2.727-.652,4.257,4.257,0,0,0,1.757-1.423l1.172-1.807h-6.362l-0.975,1.557H354.1l4.233-6.721h7.1l-0.745,1.2h6.37Z" transform="translate(-320 -660.031)"/>
  <path id="Fill_6" data-name="Fill 6" class="cls-1" d="M400.114,661.621l-1.768-1.579h-2.931l-8.3,4.791-2.527-4.785h-9.395l3.416,1.747-4.574,7.263-5.058,2.359h9.339l3.724-5.917,2.134,4.353,7.551-4.259-3.64,5.823,5.868,0Z" transform="translate(-320 -660.031)"/>
</svg>
