<svg id="icon_1" data-name="icon/1" xmlns="http://www.w3.org/2000/svg" width="27" height="30.125" viewBox="0 0 27 30.125">
  <metadata><?xpacket begin="﻿" id="W5M0MpCehiHzreSzNTczkc9d"?>
<x:xmpmeta xmlns:x="adobe:ns:meta/" x:xmptk="Adobe XMP Core 5.6-c142 79.160924, 2017/07/13-01:06:39        ">
   <rdf:RDF xmlns:rdf="http://www.w3.org/1999/02/22-rdf-syntax-ns#">
      <rdf:Description rdf:about=""/>
   </rdf:RDF>
</x:xmpmeta>
                                                                                                    
                                                                                                    
                                                                                                    
                                                                                                    
                                                                                                    
                                                                                                    
                                                                                                    
                                                                                                    
                                                                                                    
                                                                                                    
                                                                                                    
                                                                                                    
                                                                                                    
                                                                                                    
                                                                                                    
                                                                                                    
                                                                                                    
                                                                                                    
                                                                                                    
                                                                                                    
                           
<?xpacket end="w"?></metadata>
<defs>
    <style>
      .cls-1 {
        fill: #182353;
        fill-rule: evenodd;
      }
    </style>
  </defs>
  <path id="mask" class="cls-1" d="M1704.85,692.734a0.768,0.768,0,0,0-.72-0.811h-4.8a0.767,0.767,0,0,0-.71.811v2.531a0.768,0.768,0,0,0,.71.812h4.8a0.769,0.769,0,0,0,.72-0.812v-2.531Zm4.15-1.15v4.845a0.689,0.689,0,0,1-.69.686h-25.62a0.689,0.689,0,0,1-.69-0.686v-4.845a4.8,4.8,0,0,1,3.06-4.481l6.06-2.4a0.7,0.7,0,0,1,.54.012,0.655,0.655,0,0,1,.37.393l1.53,4.171,0.3-.859-0.48-1.162a0.7,0.7,0,0,1,.06-0.643,0.709,0.709,0,0,1,.58-0.3h2.96a0.709,0.709,0,0,1,.58.3,0.7,0.7,0,0,1,.06.643l-0.48,1.162,0.3,0.859,1.53-4.171a0.655,0.655,0,0,1,.37-0.393,0.7,0.7,0,0,1,.54-0.012l6.06,2.4a4.8,4.8,0,0,1,3.06,4.481h0Zm-6.38-13.287c-0.46,1.806-1.52,2.2-2.1,2.284a11.934,11.934,0,0,1-1.89,2.947,3.7,3.7,0,0,1-1.2.746,5.091,5.091,0,0,1-3.86,0,3.7,3.7,0,0,1-1.2-.746,11.934,11.934,0,0,1-1.89-2.947c-0.58-.08-1.64-0.478-2.1-2.284a2.927,2.927,0,0,1,.18-2.339,1.807,1.807,0,0,1,.55-0.556c0-.193.01-0.434,0.03-0.709a3.428,3.428,0,0,1-.23-3.156,2.742,2.742,0,0,1,2.57-2.047,4.555,4.555,0,0,1,1.38-1.553,5.19,5.19,0,0,1,3.04-.937,6.734,6.734,0,0,1,4.07,1.467c2.05,1.555,1.88,5,1.83,5.632a10.046,10.046,0,0,1,.09,1.3,1.83,1.83,0,0,1,.55.556,2.971,2.971,0,0,1,.18,2.34h0Z" transform="translate(-1682 -667)"/>
</svg>
