<svg id="mask" xmlns="http://www.w3.org/2000/svg" width="27" height="25.188" viewBox="0 0 27 25.188">
    <metadata><?xpacket begin="﻿" id="W5M0MpCehiHzreSzNTczkc9d"?>
        <x:xmpmeta xmlns:x="adobe:ns:meta/" x:xmptk="Adobe XMP Core 5.6-c142 79.160924, 2017/07/13-01:06:39        ">
            <rdf:RDF xmlns:rdf="http://www.w3.org/1999/02/22-rdf-syntax-ns#">
                <rdf:Description rdf:about=""/>
            </rdf:RDF>
        </x:xmpmeta>


        <?xpacket end="w"?>
    </metadata>
    <defs>
        <style>
            .cls-1 {
            fill: #182353;
            fill-rule: evenodd;
            }
        </style>
    </defs>
    <path id="Fill_1" data-name="Fill 1" class="cls-1"
          d="M514.937,864.6l0.726-2.545h13.674l0.726,2.545H514.937ZM536,859a5.766,5.766,0,0,0-4.779-5.706c-0.154-.026-0.3-0.054-0.455-0.083a6.3,6.3,0,0,1-2.176,4.032,5.262,5.262,0,0,1-3.3,1.046,8.74,8.74,0,0,1-1.833-.208,11.272,11.272,0,0,1-5.5-3.12c-1.954-1.734-3.8-3.373-8.955-2.875v9.961h3.072l-0.728,2.554a2.811,2.811,0,0,0,.452,2.472,2.758,2.758,0,0,0,2.23,1.123h16.948a2.758,2.758,0,0,0,2.23-1.123,2.811,2.811,0,0,0,.452-2.472l-0.729-2.554H536V859Z"
          transform="translate(-509 -843)"/>
    <path id="Fill_4" data-name="Fill 4" class="cls-1"
          d="M523.666,853.9l-1.078-1.1,2.073-1.978a2.928,2.928,0,0,1-.353-0.441c-0.041-.062-0.08-0.124-0.119-0.186l-2.609,1.489-0.776-1.324,2.616-1.493c-0.15-.282-0.285-0.556-0.408-0.819l-2.818,1.054-0.549-1.43,2.777-1.039a11.469,11.469,0,0,1-.57-2.03l-0.117-.854-5.679,1.455a3.2,3.2,0,0,0-3.05-2.205H509v7.554a13.152,13.152,0,0,1,6.122.677,12.693,12.693,0,0,1,3.672,2.463,9.677,9.677,0,0,0,4.686,2.641,4.541,4.541,0,0,0,3.768-.522,4.6,4.6,0,0,0,1.552-2.983,12.616,12.616,0,0,1-2.881-1.081Z"
          transform="translate(-509 -843)"/>
</svg>
