<svg id="tuuk" xmlns="http://www.w3.org/2000/svg" width="129.97" height="15.78" viewBox="0 0 129.97 15.78">
  <metadata><?xpacket begin="﻿" id="W5M0MpCehiHzreSzNTczkc9d"?>
<x:xmpmeta xmlns:x="adobe:ns:meta/" x:xmptk="Adobe XMP Core 5.6-c142 79.160924, 2017/07/13-01:06:39        ">
   <rdf:RDF xmlns:rdf="http://www.w3.org/1999/02/22-rdf-syntax-ns#">
      <rdf:Description rdf:about=""/>
   </rdf:RDF>
</x:xmpmeta>
                                                                                                    
                                                                                                    
                                                                                                    
                                                                                                    
                                                                                                    
                                                                                                    
                                                                                                    
                                                                                                    
                                                                                                    
                                                                                                    
                                                                                                    
                                                                                                    
                                                                                                    
                                                                                                    
                                                                                                    
                                                                                                    
                                                                                                    
                                                                                                    
                                                                                                    
                                                                                                    
                           
<?xpacket end="w"?></metadata>
<defs>
    <style>
      .cls-1 {
        fill: #fefefe;
        fill-rule: evenodd;
      }
    </style>
  </defs>
  <path id="Fill_1" data-name="Fill 1" class="cls-1" d="M1017.51,2444.12l-1.23,1.29,2.72,0.02-1.47,2.84a2.53,2.53,0,0,1-1.67,1.38l3.45,0.02,2.14-4.17h0.97l0.74-1.36Z" transform="translate(-1015 -2439.66)"/>
  <path id="Fill_3" data-name="Fill 3" class="cls-1" d="M1023.79,2444.15l-1.68,3.28s-0.95,2.13,1.3,2.3l5.72,0.04s-2.01-.45-1.34-1.96l1.73-3.63-2.1-.01-1.74,3.47a1.047,1.047,0,0,1-1.04.5s-0.86.06-.53-0.7l1.6-3.28Z" transform="translate(-1015 -2439.66)"/>
  <path id="Fill_5" data-name="Fill 5" class="cls-1" d="M1031.9,2444.22h1.48l-1.6,3.35a0.957,0.957,0,0,1-1,.6s-0.9,0-.49-0.76Z" transform="translate(-1015 -2439.66)"/>
  <path id="Fill_7" data-name="Fill 7" class="cls-1" d="M1035.76,2444.2l-1.91,4.01a3.714,3.714,0,0,1-2.32,1.55l3.87,0.02,1.23-2.69,1.14,2.66,2.45,0.01-1-1.84s-0.45-.74.59-1.58l3.27-2.07-2.76-.02-3.46,2.33,1.12-2.37Z" transform="translate(-1015 -2439.66)"/>
  <path id="Fill_9" data-name="Fill 9" class="cls-1" d="M1074.37,2439.74l7.63,0.07-0.52,1.22-5.77-.05-0.42.98a2.573,2.573,0,0,1,1.48-.34l2.43,0.02c1.49,0.02,2.18.41,1.65,1.66l-0.16.37c-0.73,1.72-1.88,1.86-4.16,1.84l-1.68-.02c-2.11-.02-3.08-0.19-2.51-1.52l0.14-.33,1.97,0.01c-0.2.48-.09,0.61,0.89,0.62l2.01,0.02c0.99,0.01,1.19-.21,1.42-0.76,0.27-.64.04-0.71-0.94-0.72l-2.26-.02a0.893,0.893,0,0,0-.79.37l-1.86-.01Z" transform="translate(-1015 -2439.66)"/>
  <path id="Fill_11" data-name="Fill 11" class="cls-1" d="M1042.58,2449.76l11.38,0.04,1.02-2.53-7.88-.03,2.95-7.34-3.5-.01Z" transform="translate(-1015 -2439.66)"/>
  <path id="Fill_13" data-name="Fill 13" class="cls-1" d="M1056.17,2446.36l3.5,0.03c-0.41,1.05.05,1.13,1.06,1.14l4.29,0.03a1.724,1.724,0,0,0,1.84-.83c0.35-.85-0.04-0.91-4.55-0.94-5.27-.04-5.65-0.58-4.67-3.01,0.72-1.78,1.47-3.15,5.89-3.13l4.89,0.04c4.04,0.02,3.94,1.21,3.24,2.93l-0.13.32-3.5-.02c0.29-.72.32-1.02-1.29-1.04l-3.89-.02a1.6,1.6,0,0,0-1.63.76c-0.35.85,0.07,0.88,3.83,0.89,5.45,0.03,6.59.32,5.43,3.19-1.08,2.66-2.3,3.09-6.95,3.06l-4.25-.03c-3.19-.02-4.25-0.55-3.39-2.69Z" transform="translate(-1015 -2439.66)"/>
  <path id="Fill_16" data-name="Fill 16" class="cls-1" d="M1092.99,2442.08h0a7.09,7.09,0,0,0-3.12,1.01l-12.19,9.16a4.7,4.7,0,0,1-1.93.75H1015l62.76,2.44a9.083,9.083,0,0,0,3.55-.78c3.62-1.53,11.35-9.26,14.33-9.62h49.33Z" transform="translate(-1015 -2439.66)"/>
  <path id="Fill_19" data-name="Fill 19" class="cls-1" d="M1134.9,2447.89h-4.6a1.421,1.421,0,0,0-1.53.94l-1.13,3.2c-0.22.63,0.07,0.94,0.87,0.94l4.6,0.01a1.432,1.432,0,0,0,1.53-.94l1.13-3.2c0.22-.63-0.07-0.95-0.87-0.95h0Zm-0.4,1.13-0.99,2.83a0.262,0.262,0,0,1-.27.19l-4.2-.01c-0.13,0-.18-0.06-0.13-0.19l0.99-2.82a0.267,0.267,0,0,1,.27-0.19h4.2c0.13,0,.18.07,0.13,0.19h0Zm-7.8-1.14-5.8-.01-0.15.44-0.18.5-0.33.94-1.13,3.21h1.2l4.6,0.01a1.443,1.443,0,0,0,1.53-.94l0.47-1.32a0.391,0.391,0,0,0-.14-0.47,0.927,0.927,0,0,0,.47-0.47l0.33-.95c0.22-.63-0.07-0.94-0.87-0.94h0Zm-1.06,3.01-0.33.95a0.262,0.262,0,0,1-.27.18h-4.4l0.47-1.32,4.4,0.01c0.13,0,.17.06,0.13,0.18h0Zm0.66-1.88-0.2.57a0.25,0.25,0,0,1-.26.18h-4.4l0.33-.95,4.4,0.01c0.13,0,.18.07,0.13,0.19h0Zm-29.39,2.78,0.99-2.82a0.259,0.259,0,0,1,.27-0.19l5.6,0.01,0.33-.95h-5.8a1.432,1.432,0,0,0-1.53.94l-1.13,3.2c-0.22.63,0.07,0.94,0.87,0.94l5.8,0.01,0.33-.94-5.6-.01c-0.13,0-.18-0.06-0.13-0.19h0Zm11.49-3.94a1.3,1.3,0,0,0-1.03.38l-4.26,4.7h1.4l0.83-.94,3.2,0.01,0.17,0.94h1.44l-0.98-4.71a0.652,0.652,0,0,0-.77-0.38h0Zm-2.23,3.2,1.83-2.07,0.37,2.08Zm12.1-3.18-5.8-.01-0.12.35-0.21.59-0.33.94-1.12,3.21h1.2l0.79-2.26h2.67l0.99,2.26h1.38l-0.98-2.26h0.54a1.432,1.432,0,0,0,1.53-.94l0.33-.94c0.23-.63-0.07-0.94-0.87-0.94h0Zm-0.39,1.13-0.2.56a0.252,0.252,0,0,1-.27.19h-4.4l0.33-.95,4.4,0.01c0.14,0,.18.06,0.14,0.19h0Zm25.22-1.1-1.46,4.15-2.27-3.77a0.977,0.977,0,0,0-.87-0.38,1.432,1.432,0,0,0-1.53.94l-1.46,4.14h1.2l1.46-4.14,2.27,3.77a1,1,0,0,0,.87.38,1.432,1.432,0,0,0,1.53-.94l1.46-4.14Z" transform="translate(-1015 -2439.66)"/>
</svg>
