<svg id="_-e-bauer" data-name="-e-bauer" xmlns="http://www.w3.org/2000/svg" width="98.844" height="11.812" viewBox="0 0 98.844 11.812">
  <metadata><?xpacket begin="﻿" id="W5M0MpCehiHzreSzNTczkc9d"?>
<x:xmpmeta xmlns:x="adobe:ns:meta/" x:xmptk="Adobe XMP Core 5.6-c142 79.160924, 2017/07/13-01:06:39        ">
   <rdf:RDF xmlns:rdf="http://www.w3.org/1999/02/22-rdf-syntax-ns#">
      <rdf:Description rdf:about=""/>
   </rdf:RDF>
</x:xmpmeta>
                                                                                                    
                                                                                                    
                                                                                                    
                                                                                                    
                                                                                                    
                                                                                                    
                                                                                                    
                                                                                                    
                                                                                                    
                                                                                                    
                                                                                                    
                                                                                                    
                                                                                                    
                                                                                                    
                                                                                                    
                                                                                                    
                                                                                                    
                                                                                                    
                                                                                                    
                                                                                                    
                           
<?xpacket end="w"?></metadata>
<defs>
    <style>
      .cls-1 {
        fill: #fff;
        fill-rule: evenodd;
      }
    </style>
  </defs>
  <path id="Fill_1" data-name="Fill 1" class="cls-1" d="M496.88,659.979l-4.867,10.15a2.967,2.967,0,0,1-2.849,1.639H477.352c-1.354,0-1.77-1.035-1.258-2.125l4.623-9.664h4.1l-4.263,8.882a0.238,0.238,0,0,0,.234.382h7.07a0.646,0.646,0,0,0,.7-0.428l4.241-8.836h4.084Z" transform="translate(-435.75 -659.969)"/>
  <path id="Fill_3" data-name="Fill 3" class="cls-1" d="M513.482,659.978H502.137a2.828,2.828,0,0,0-2.858,1.852l-3.679,7.65c-0.638,1.3-.016,2.287,1.364,2.287H508.47a2.966,2.966,0,0,0,2.9-1.736l0.359-.716H500.164c-0.243,0-.333-0.162-0.224-0.392l0.671-1.4a0.658,0.658,0,0,1,.676-0.429h9.484a2.811,2.811,0,0,0,2.759-1.545l1.479-3.078a2.655,2.655,0,0,0,.292-1.143c0-.868-0.722-1.347-1.819-1.347m-2.447,2.8-0.73,1.514a0.625,0.625,0,0,1-.649.375h-7.667l0.9-1.874a0.641,0.641,0,0,1,.668-0.4h7.218a0.253,0.253,0,0,1,.257.383" transform="translate(-435.75 -659.969)"/>
  <path id="Fill_6" data-name="Fill 6" class="cls-1" d="M530.255,662.775l-0.76,1.574a0.635,0.635,0,0,1-.668.386h-7.833l0.931-1.929a0.665,0.665,0,0,1,.706-0.415H530a0.254,0.254,0,0,1,.257.384h0Zm4.038-.307a2.666,2.666,0,0,0,.291-1.143c0-.868-0.722-1.347-1.818-1.347H521.208a2.829,2.829,0,0,0-2.858,1.852l-4.786,9.937h4.051l2-4.17a0.659,0.659,0,0,1,.678-0.434h5.039a0.561,0.561,0,0,1,.611.4l1.637,4.2h3.9l-1.864-4.674,0.291-.022a3.37,3.37,0,0,0,3.07-1.868Z" transform="translate(-435.75 -659.969)"/>
  <path id="Fill_9" data-name="Fill 9" class="cls-1" d="M474.757,659.978h-11.72a2.708,2.708,0,0,0-2.7,1.689l-0.372.766,11.806,0a0.256,0.256,0,0,1,.266.4l-0.615,1.282a0.641,0.641,0,0,1-.67.421H460.676a2.687,2.687,0,0,0-2.5,1.544l-1.662,3.455c-0.589,1.247-.011,2.234,1.332,2.234h11.923a2.974,2.974,0,0,0,2.844-1.641l3.672-7.66a2.685,2.685,0,0,0,.291-1.144c0-.868-0.722-1.344-1.819-1.344h0Zm-5.649,8.947a0.633,0.633,0,0,1-.653.394H461a0.239,0.239,0,0,1-.208-0.387l0.783-1.641a0.637,0.637,0,0,1,.67-0.408h7.842Z" transform="translate(-435.75 -659.969)"/>
  <path id="Fill_12" data-name="Fill 12" class="cls-1" d="M455.457,659.979H443.275a2.765,2.765,0,0,0-2.631,1.566l-4.9,10.223h14.849a2.856,2.856,0,0,0,2.825-1.606l1.01-2.1a2.39,2.39,0,0,0,.291-1.007,1.4,1.4,0,0,0-1.315-1.345,6.482,6.482,0,0,0,.849-0.138A2.753,2.753,0,0,0,456.247,664l0.737-1.529a2.666,2.666,0,0,0,.291-1.143c0-.867-0.722-1.346-1.818-1.346h0Zm-5.539,8.948a0.629,0.629,0,0,1-.666.392H441.4a0.24,0.24,0,0,1-.23-0.379l0.8-1.666a0.662,0.662,0,0,1,.661-0.4h8.27Zm2.98-6.193-0.652,1.361a0.631,0.631,0,0,1-.668.4H443.3l0.843-1.763a0.654,0.654,0,0,1,.659-0.4h7.832a0.256,0.256,0,0,1,.262.4h0Z" transform="translate(-435.75 -659.969)"/>
</svg>
