<svg xmlns="http://www.w3.org/2000/svg" width="133.192" height="17.313" viewBox="0 0 133.192 17.313">
  <metadata><?xpacket begin="﻿" id="W5M0MpCehiHzreSzNTczkc9d"?>
<x:xmpmeta xmlns:x="adobe:ns:meta/" x:xmptk="Adobe XMP Core 5.6-c142 79.160924, 2017/07/13-01:06:39        ">
   <rdf:RDF xmlns:rdf="http://www.w3.org/1999/02/22-rdf-syntax-ns#">
      <rdf:Description rdf:about=""/>
   </rdf:RDF>
</x:xmpmeta>
                                                                                                    
                                                                                                    
                                                                                                    
                                                                                                    
                                                                                                    
                                                                                                    
                                                                                                    
                                                                                                    
                                                                                                    
                                                                                                    
                                                                                                    
                                                                                                    
                                                                                                    
                                                                                                    
                                                                                                    
                                                                                                    
                                                                                                    
                                                                                                    
                                                                                                    
                                                                                                    
                           
<?xpacket end="w"?></metadata>
<defs>
    <style>
      .cls-1 {
        fill: #fff;
        fill-rule: evenodd;
      }
    </style>
  </defs>
  <path id="Fill_1" data-name="Fill 1" class="cls-1" d="M1073.55,662.349c-1.39,0-1.4,0-1.85.772l-0.62,1.058h11.74l-1.42,2.483h-11.73l-0.83,1.431a0.261,0.261,0,0,0,.25.4h11.25l-1.55,2.691h-11.06c-1.19,0-3.56-.724-1.76-3.841l2.62-4.529c1.73-2.98,1.89-2.985,6.17-2.985h11.01l-1.45,2.521h-10.77Zm-32.58-2.521h10.17l-1.45,2.521h-9.77c-1.6,0-3.29,1.712-4.08,3.7a2.384,2.384,0,0,0-.15,1.684,1.162,1.162,0,0,0,1.27.761h9.19l-1.55,2.691h-8.84a2.807,2.807,0,0,1-2.99-2.047c-0.86-2.8,1.03-6.137,3.27-7.995,1.58-1.312,3.84-1.314,4.93-1.314h0Zm15.47,0-2.49,4.351h8.6l2.52-4.351h3.29l-6.54,11.356h-3.29l2.6-4.508h-8.62l-2.61,4.508h-3.28l6.54-11.356h3.28Zm-48.99,11.355,6.55-11.355h3.32l-6.56,11.355h-3.31Zm27.09-11.355h-10.93c-3.22,0-5.76.828-5.98,3.265-0.21,2.214,5.66,3.184,8.11,4.016,1,0.34,1.23.629,1.05,0.9-0.27.4-1.29,0.487-2.55,0.487h-9.91l-1.55,2.692h11.41c5.99,0,6.73-2.2,6.69-3.593-0.06-2.307-5.63-3.1-8.63-4.142-0.46-.149-0.81-0.282-0.69-0.526a2.141,2.141,0,0,1,1.84-.575h9.56Zm-34.38,0h11.83l-1.45,2.521h-12.2c-0.466,0-.546,0-0.734.33l-0.859,1.5h12.3l-1.43,2.483H995.312l-2.615,4.523h-3.511l4.851-8.374c1.78-3.088,2.364-2.982,6.123-2.982h0Zm86.68,7.32-2.31,4.036h-3.29l6.54-11.356h9.77c4.69,0,6.28,3.868.19,5.791l-5.72,1.582,7.04,3.983h-5.08Zm0.53-.87,8.13-2.256c1.79-.5,3.07-0.861,3.07-1.24,0-.417-0.66-0.433-2.13-0.433h-6.82Zm24.42,4.9h-9.02a0.3,0.3,0,0,1-.28-0.491l4.51-7.809a0.294,0.294,0,0,1,.56,0l4.52,7.809a0.3,0.3,0,0,1-.29.491h0Zm10.2,0h-9.02a0.3,0.3,0,0,1-.28-0.491l4.51-7.809a0.294,0.294,0,0,1,.56,0l4.51,7.809a0.3,0.3,0,0,1-.28.491h0Zm-5.1-8.834h-9.01a0.3,0.3,0,0,1-.29-0.492l4.51-7.809a0.294,0.294,0,0,1,.56,0l4.52,7.808a0.3,0.3,0,0,1-.29.493h0Z" transform="translate(-989.188 -653.875)"/>
</svg>
