<svg id="_-e-warrior" data-name="-e-warrior" xmlns="http://www.w3.org/2000/svg" width="107.656" height="12" viewBox="0 0 107.656 12">
  <metadata><?xpacket begin="﻿" id="W5M0MpCehiHzreSzNTczkc9d"?>
<x:xmpmeta xmlns:x="adobe:ns:meta/" x:xmptk="Adobe XMP Core 5.6-c142 79.160924, 2017/07/13-01:06:39        ">
   <rdf:RDF xmlns:rdf="http://www.w3.org/1999/02/22-rdf-syntax-ns#">
      <rdf:Description rdf:about=""/>
   </rdf:RDF>
</x:xmpmeta>
                                                                                                    
                                                                                                    
                                                                                                    
                                                                                                    
                                                                                                    
                                                                                                    
                                                                                                    
                                                                                                    
                                                                                                    
                                                                                                    
                                                                                                    
                                                                                                    
                                                                                                    
                                                                                                    
                                                                                                    
                                                                                                    
                                                                                                    
                                                                                                    
                                                                                                    
                                                                                                    
                           
<?xpacket end="w"?></metadata>
<defs>
    <style>
      .cls-1 {
        fill: #fff;
        fill-rule: evenodd;
      }
    </style>
  </defs>
  <path id="Fill_1" data-name="Fill 1" class="cls-1" d="M670.959,665.026c1.188-.08,2.751.23,3.311-0.486a5.66,5.66,0,0,0,.51-1.343c0.082-.22.165-0.423,0.255-0.672a1.591,1.591,0,0,0,.185-0.741,0.852,0.852,0,0,0-.556-0.255c-0.771-.125-1.664,0-2.431-0.046-0.462,1.144-.856,2.355-1.274,3.543m-3.2-4.98h6.693c1.053,0,2.2-.051,3.289.047,1.021,0.092,2.458.287,2.5,1.343a4.452,4.452,0,0,1-.417,1.552,10.743,10.743,0,0,1-.51,1.459,3.276,3.276,0,0,1-2.362,1.367c0.673,0.3,1.555.729,1.2,1.807a13.739,13.739,0,0,0-.9,1.968,3.175,3.175,0,0,0,.764,2.386H671.7c0.484-1.349,1.035-2.966,1.552-4.447a1.43,1.43,0,0,0,.162-0.672c-0.1-.359-0.881-0.3-1.343-0.324-0.554-.026-1.1-0.029-1.622-0.023-0.667,1.795-1.3,3.627-1.922,5.466h-5c1.419-3.97,2.784-7.994,4.239-11.929" transform="translate(-572.594 -660)"/>
  <path id="Fill_3" data-name="Fill 3" class="cls-1" d="M660,661.506c-1.545.1-2.875,0.376-3.5,1.413a5.31,5.31,0,0,0-.347.927c-0.779,2.207-1.611,4.488-2.362,6.67,1.44-.062,2.771-0.266,3.474-1.089a3.568,3.568,0,0,0,.486-1.135c0.751-2.1,1.5-4.269,2.224-6.346a0.717,0.717,0,0,0,.115-0.463,0.687,0.687,0,0,0-.092.023m5.582-1.459c-0.944,2.72-1.89,5.428-2.849,8.175a4.8,4.8,0,0,1-.741,1.6,5.848,5.848,0,0,1-2.571,1.413,14.833,14.833,0,0,1-3.312.649c-2.492.233-5.313,0.015-7.829,0.092,0.992-2.828,1.992-5.616,2.919-8.176a4.453,4.453,0,0,1,1-1.784,7.155,7.155,0,0,1,3.868-1.69c2.749-.485,6.294-0.2,9.52-0.278" transform="translate(-572.594 -660)"/>
  <path id="Fill_6" data-name="Fill 6" class="cls-1" d="M645.783,660.046h4.956c-1.388,3.986-2.819,7.928-4.192,11.929h-5c1.418-3.972,2.785-7.994,4.239-11.929" transform="translate(-572.594 -660)"/>
  <path id="Fill_8" data-name="Fill 8" class="cls-1" d="M633.531,665.026c1.094-.053,2.4.148,3.08-0.277a1.742,1.742,0,0,0,.556-0.973,12.374,12.374,0,0,0,.648-1.992c-0.615-.488-1.972-0.236-3.01-0.3-0.443,1.163-.837,2.374-1.274,3.543m-3.2-4.98c3.2,0.1,6.485-.148,9.727.024,1.047,0.056,2.494.269,2.733,1.088a2.1,2.1,0,0,1,0,.672,11.649,11.649,0,0,1-.464,1.39,7.763,7.763,0,0,1-.485,1.343,3.428,3.428,0,0,1-2.317,1.251c0.7,0.273,1.567.777,1.228,1.829a11.841,11.841,0,0,1-.6,1.113,2.906,2.906,0,0,0-.347,1.343,3.828,3.828,0,0,0,.811,1.876h-6.323c0.469-1.356,1.031-2.977,1.551-4.447a1.5,1.5,0,0,0,.162-0.672c-0.092-.358-0.884-0.3-1.343-0.324-0.553-.026-1.095-0.029-1.621-0.023-0.691,1.78-1.289,3.652-1.945,5.466h-4.98q2.1-5.976,4.216-11.929" transform="translate(-572.594 -660)"/>
  <path id="Fill_10" data-name="Fill 10" class="cls-1" d="M618.013,665.026c1.246-.085,2.637.225,3.265-0.44a2.326,2.326,0,0,0,.324-0.764,12.013,12.013,0,0,0,.672-2.038c-0.615-.489-1.973-0.236-3.011-0.3-0.426,1.171-.854,2.342-1.25,3.543m-3.22-4.98c3.109,0.1,6.513-.147,9.728.024,1.023,0.054,2.432.248,2.71,1.018a3.265,3.265,0,0,1-.394,2.062,8.321,8.321,0,0,1-.532,1.413,3.4,3.4,0,0,1-2.316,1.251c0.719,0.263,1.58.815,1.2,1.853-0.126.348-.395,0.7-0.579,1.089a3.029,3.029,0,0,0-.347,1.3,3.641,3.641,0,0,0,.81,1.923h-6.323c0.475-1.354,1.03-2.977,1.552-4.447a1.506,1.506,0,0,0,.162-0.672c-0.093-.358-0.885-0.3-1.343-0.324-0.553-.026-1.1-0.029-1.622-0.023-0.688,1.781-1.286,3.654-1.945,5.466h-4.98q2.1-5.976,4.215-11.929" transform="translate(-572.594 -660)"/>
  <path id="Fill_12" data-name="Fill 12" class="cls-1" d="M607.428,661.506a4.517,4.517,0,0,0-3.219,1.066,3.929,3.929,0,0,0-.695,1.459c-0.183.5-.38,1.038-0.579,1.6h3.2c0.409-1.2.866-2.472,1.274-3.637a0.783,0.783,0,0,0,.115-0.509,0.59,0.59,0,0,0-.092.023m5.605-1.459q-2.115,5.955-4.215,11.928h-4.91c0.543-1.635,1.123-3.231,1.691-4.841h-3.174c-0.6,1.582-1.151,3.218-1.714,4.841H594.69c-0.056-.085.125-0.16,0.208-0.232a6.527,6.527,0,0,0,1.622-2.061c0.254-.558.412-1.177,0.625-1.761,0.433-1.191.818-2.3,1.251-3.52a9.069,9.069,0,0,1,.694-1.691c2.123-3.42,8.5-2.527,13.943-2.663" transform="translate(-572.594 -660)"/>
  <path id="Fill_14" data-name="Fill 14" class="cls-1" d="M576.809,660.046h4.957c-1.2,3.5-2.451,6.953-3.659,10.446a6.7,6.7,0,0,0,2.131-.487,3.143,3.143,0,0,0,1.574-1.087,6.992,6.992,0,0,0,.394-1.112c0.9-2.532,1.9-5.264,2.756-7.76H589.9q-1.841,5.235-3.682,10.469a8.327,8.327,0,0,0,2.177-.51,3.166,3.166,0,0,0,1.575-1.087,7.326,7.326,0,0,0,.393-1.112c0.889-2.526,1.852-5.264,2.734-7.76h6.183c0.023,0.073-.087.083-0.139,0.116a5.638,5.638,0,0,0-.671.464,6.488,6.488,0,0,0-1.274,2.177c-0.714,1.647-1.21,3.3-1.853,5.049a4.888,4.888,0,0,1-1.274,2.153c-2.5,2.191-7.029,2-11.789,1.97q0.246-.566.486-1.136a16.916,16.916,0,0,1-4.516,1.112c-1.815.1-3.715-.023-5.651,0.024q2.082-5.99,4.215-11.929" transform="translate(-572.594 -660)"/>
</svg>
